<svg width="60" height="73" viewBox="0 0 60 73" fill="none" xmlns="http://www.w3.org/2000/svg">
<path fill-rule="evenodd" clip-rule="evenodd" d="M29.8617 16.4608C26.6105 16.4243 23.355 16.6606 20.1592 17.2126C16.2987 17.8779 12.1708 18.9067 8.77744 21.3761C6.0687 23.3475 4.11522 26.2263 2.66791 29.1225C1.1723 32.1151 0.179466 35.4939 0.0363989 38.9149C-0.167708 43.7571 0.456799 48.9396 2.66791 53.3799C6.12531 60.3228 11.5189 67.0112 18.5306 70.3715C23.7725 72.8837 30.029 72.844 35.4882 71.5182C42.004 69.9359 48.416 66.3278 52.8875 61.0882C56.7675 56.5415 58.7926 50.4569 59.6457 44.6295C60.3356 39.9169 60.0948 34.7686 58.2379 30.2692C56.7347 26.6266 54.002 23.5354 50.8955 21.3618C47.4721 18.967 43.3631 18.0309 39.5367 17.3649C36.3575 16.8114 33.113 16.4981 29.8617 16.4608ZM29.8341 18.897C32.9566 18.9336 36.0821 19.2345 39.1457 19.7678C42.8789 20.4178 46.6486 21.3321 49.5751 23.3793C52.3497 25.3207 54.7869 28.1138 56.0711 31.2256C57.6989 35.1703 57.9569 39.9024 57.3178 44.2679C56.5117 49.774 54.5749 55.4324 51.1209 59.4799C47.0372 64.2651 41.0205 67.6742 34.95 69.1486C29.8778 70.3804 24.0931 70.3553 19.5197 68.1637C13.1801 65.1255 8.04138 58.8535 4.76116 52.2665C2.81202 48.3522 2.20026 43.5653 2.39187 39.0196C2.51733 36.0196 3.40334 32.9575 4.76116 30.2406C6.10085 27.5596 7.8794 25.0113 10.1346 23.3698C13.037 21.2578 16.813 20.2589 20.5456 19.6155C23.5943 19.0903 26.7117 18.8615 29.8341 18.897Z" fill="#1188EE"/>
<path fill-rule="evenodd" clip-rule="evenodd" d="M3.92846 28.6037C3.6946 28.6177 3.47009 28.7036 3.28362 28.8502C3.09715 28.9969 2.95719 29.1975 2.88163 29.4269C2.80607 29.6562 2.79834 29.9037 2.85943 30.1376C2.92052 30.3715 3.04765 30.5813 3.22458 30.7401C3.22458 30.7401 4.32751 31.759 5.76408 32.9099C7.20065 34.0605 8.92776 35.3557 10.498 35.9932C17.1507 38.6938 24.4722 39.0319 31.4029 38.9671C46.0652 38.8307 57.4052 32.4579 57.4052 32.4579C57.5452 32.384 57.6695 32.2818 57.7707 32.1575C57.8719 32.0332 57.9481 31.8892 57.9947 31.734C58.0413 31.5788 58.0574 31.4155 58.042 31.2537C58.0266 31.092 57.9801 30.9351 57.9052 30.7922C57.8303 30.6493 57.7285 30.5232 57.6058 30.4216C57.4832 30.3201 57.342 30.245 57.1908 30.2007C57.0396 30.1564 56.8814 30.1439 56.7254 30.1638C56.5695 30.1837 56.4189 30.2356 56.2827 30.3167C56.2827 30.3167 45.3937 36.3998 31.3799 36.5309C24.5424 36.5942 17.5228 36.226 11.3583 33.7235C10.3053 33.2962 8.57587 32.0781 7.20865 30.9828C5.84143 29.8877 4.79337 28.9225 4.79337 28.9225C4.67717 28.8122 4.54074 28.7271 4.39217 28.6724C4.2436 28.6176 4.08591 28.5942 3.92846 28.6037Z" fill="#1188EE"/>
<path fill-rule="evenodd" clip-rule="evenodd" d="M58.1505 37.2827C57.8452 37.2953 57.5565 37.43 57.3454 37.6586C57.3454 37.6586 56.8144 38.2164 56.1217 38.872C55.429 39.5278 54.5421 40.2867 54.056 40.5754C51.1893 42.2786 47.8951 43.3471 44.5651 44.0156C41.7198 44.5871 35.1064 44.4486 35.1064 44.4486C34.9517 44.4442 34.7976 44.4712 34.6531 44.5283C34.5085 44.5854 34.3762 44.6717 34.2638 44.7817C34.1514 44.8917 34.061 45.0236 33.9979 45.1698C33.9348 45.3159 33.9001 45.4734 33.8959 45.6334C33.8916 45.7934 33.9179 45.9529 33.9733 46.1024C34.0286 46.2519 34.1118 46.3885 34.2183 46.5048C34.3247 46.621 34.4522 46.7143 34.5935 46.7795C34.7349 46.8448 34.8873 46.8805 35.042 46.8848C35.042 46.8848 41.4958 47.1162 45.016 46.409C48.5211 45.7054 52.0583 44.572 55.2292 42.6881C56.0876 42.1779 56.9705 41.3787 57.7135 40.6753C58.4564 39.972 59.0246 39.3713 59.0246 39.3713C59.1936 39.1986 59.3082 38.9772 59.3533 38.7361C59.3984 38.4949 59.3719 38.2453 59.2774 38.0199C59.1829 37.7946 59.0247 37.6041 58.8236 37.4733C58.6225 37.3426 58.3879 37.2778 58.1505 37.2875L58.1505 37.2827Z" fill="#1188EE"/>
<path fill-rule="evenodd" clip-rule="evenodd" d="M57.1936 47.8174C57.0084 47.8232 56.8271 47.8742 56.6645 47.9661C56.6645 47.9661 50.5163 51.2323 47.5555 52.1105C45.571 52.6991 40.7236 53.1336 40.7236 53.1336C40.4119 53.1588 40.1226 53.3109 39.9194 53.5567C39.7162 53.8026 39.6158 54.122 39.6402 54.4444C39.6646 54.7669 39.8118 55.0661 40.0495 55.2762C40.2872 55.4864 40.5959 55.5903 40.9077 55.565C40.9077 55.565 45.6124 55.2202 48.2041 54.4516C51.7723 53.3931 57.7549 50.1264 57.7549 50.1264C57.9951 50.0024 58.1872 49.7976 58.2994 49.5453C58.4115 49.293 58.4369 49.0083 58.3714 48.739C58.3059 48.4697 58.1535 48.2317 57.9393 48.0643C57.7251 47.8969 57.462 47.809 57.1936 47.8174Z" fill="#1188EE"/>
<path fill-rule="evenodd" clip-rule="evenodd" d="M30.4966 21.6852C28.3319 21.7096 25.5622 21.7558 22.9241 21.9612C20.2845 22.1658 17.8097 22.4955 16.0233 23.2174C12.6198 24.5933 10.9719 27.1905 10.9719 27.1905C10.8869 27.3258 10.8287 27.4773 10.8008 27.636C10.7728 27.7947 10.7756 27.9575 10.809 28.1151C10.8424 28.2727 10.9057 28.4216 10.9952 28.5537C11.0848 28.6858 11.1989 28.7983 11.3307 28.8844C11.3307 28.8844 16.633 32.3994 21.5072 33.4618C26.2876 34.5043 34.1619 34.5462 38.9846 33.5374C43.9049 32.5088 49.3819 28.9644 49.3819 28.9644C49.5405 28.8631 49.6736 28.7246 49.7702 28.5597C49.8669 28.3948 49.9243 28.2084 49.9378 28.016C49.9512 27.8237 49.9204 27.631 49.8477 27.4534C49.7751 27.2758 49.6627 27.1184 49.5199 26.9945C49.5199 26.9945 46.0468 23.8796 42.5731 22.7311C39.1974 21.6154 34.8204 21.6451 30.5012 21.6843L30.4966 21.6852ZM30.5197 24.1214C34.8224 24.0825 39.0826 24.1458 41.8555 25.054C43.8312 25.7072 45.2692 26.9877 46.3962 27.8662C44.6079 28.8869 41.5785 30.5101 38.5201 31.1493C34.2314 32.0459 26.244 32.0043 21.9949 31.0785C18.8123 30.3847 15.6754 28.6201 14.059 27.6624C14.5656 27.0378 14.9223 26.279 16.8791 25.4879C18.1588 24.9707 20.5535 24.5916 23.099 24.3935C25.6445 24.1962 28.3733 24.1409 30.5197 24.1214Z" fill="#1188EE"/>
<path fill-rule="evenodd" clip-rule="evenodd" d="M19.2667 11.279L17.017 11.9975L23.1265 32.553L25.3762 31.8346L19.2667 11.279Z" fill="#1188EE"/>
<path fill-rule="evenodd" clip-rule="evenodd" d="M50.7344 5.46425C50.5889 5.4686 50.4454 5.50081 50.3112 5.55927L40.3004 9.74651C40.1147 9.82451 39.9514 9.95017 39.8258 10.1117C39.7002 10.2732 39.6165 10.4653 39.5827 10.6696L35.9713 32.2148C35.945 32.3726 35.949 32.5342 35.9831 32.6904C36.0172 32.8465 36.0807 32.9944 36.17 33.1251C36.3503 33.3893 36.6247 33.5684 36.9328 33.6233C37.0854 33.6505 37.2416 33.6464 37.3926 33.6111C37.5436 33.5758 37.6864 33.5101 37.8128 33.4178C38.0682 33.2313 38.2415 32.9475 38.2946 32.6288L41.791 11.7497L51.1945 7.81943C51.4547 7.71644 51.6712 7.52144 51.8055 7.26896C51.9398 7.01648 51.9833 6.7229 51.9281 6.44043C51.8729 6.15797 51.7227 5.90486 51.5042 5.72611C51.2856 5.54735 51.0129 5.45469 50.7344 5.46425Z" fill="#1188EE"/>
<path fill-rule="evenodd" clip-rule="evenodd" d="M16.7042 3.64211C16.538 3.64852 16.375 3.69135 16.2259 3.7676C16.0768 3.84386 15.9451 3.9519 15.8393 4.08462L8.25758 13.5249C8.09926 13.7232 8.00566 13.968 7.99019 14.2247C7.97471 14.4813 8.03816 14.7365 8.17143 14.9536C8.3047 15.1707 8.50097 15.3386 8.73213 15.4333C8.96329 15.5279 9.21749 15.5444 9.45832 15.4806L28.2286 10.4559C28.4703 10.391 28.6858 10.2486 28.844 10.0488C29.0023 9.84892 29.095 9.60213 29.1088 9.34424C29.1226 9.08635 29.0568 8.83055 28.9209 8.61386C28.785 8.39716 28.5861 8.23073 28.3528 8.13863L17.1642 3.723C17.0176 3.66474 16.8612 3.63691 16.7042 3.64211ZM17.1136 6.30656L24.0651 9.05221L12.4027 12.1736L17.1136 6.30656Z" fill="#1188EE"/>
<path fill-rule="evenodd" clip-rule="evenodd" d="M15.8071 0.478062C15.6224 0.485603 15.442 0.537915 15.2805 0.630919C15.119 0.723924 14.981 0.854948 14.8775 1.01336C14.774 1.17178 14.7081 1.3532 14.6849 1.54286C14.6618 1.73253 14.6822 1.9252 14.7443 2.10523L15.7013 5.02663C15.7488 5.18072 15.8255 5.32344 15.927 5.44654C16.0284 5.56964 16.1525 5.67068 16.2921 5.74363C16.4317 5.81659 16.5839 5.86004 16.7399 5.87151C16.8959 5.88297 17.0525 5.8622 17.2007 5.8104C17.3488 5.75859 17.4855 5.67683 17.6028 5.56981C17.72 5.46278 17.8155 5.33266 17.8836 5.18707C17.9517 5.04148 17.9911 4.88331 17.9995 4.7218C18.0079 4.56029 17.9852 4.39859 17.9325 4.24628L16.9756 1.32488C16.8972 1.07094 16.7405 0.850496 16.5294 0.697535C16.3184 0.544573 16.0646 0.467547 15.8071 0.478062Z" fill="#1188EE"/>
<path fill-rule="evenodd" clip-rule="evenodd" d="M8.27138 38.439C8.15975 38.4477 8.05283 38.4893 7.96314 38.5586L1.08992 43.6166C1.02679 43.6631 0.973141 43.7219 0.932037 43.7899C0.890934 43.8579 0.863182 43.9336 0.850366 44.0127C0.83755 44.0918 0.839922 44.1727 0.857345 44.2509C0.874768 44.329 0.906902 44.403 0.951911 44.4683C0.996921 44.5336 1.05392 44.589 1.11967 44.6315C1.18541 44.6741 1.25861 44.7027 1.33508 44.716C1.41154 44.7293 1.48979 44.7269 1.56534 44.7089C1.64089 44.6908 1.71227 44.6576 1.77541 44.611L8.64402 39.5483C8.74987 39.4725 8.82879 39.3629 8.86872 39.2363C8.90865 39.1097 8.90739 38.9731 8.86512 38.8473C8.82285 38.7216 8.74191 38.6138 8.63468 38.5401C8.52746 38.4665 8.39985 38.4305 8.27138 38.439Z" fill="#1188EE"/>
<path fill-rule="evenodd" clip-rule="evenodd" d="M10.5348 41.1321C10.4234 41.1459 10.318 41.1925 10.2312 41.2662L2.42408 47.6188C2.35849 47.6663 2.30296 47.727 2.26088 47.7975C2.2188 47.868 2.19105 47.9466 2.17934 48.0286C2.16763 48.1105 2.1722 48.1939 2.19277 48.2739C2.21334 48.354 2.24947 48.4289 2.29897 48.494C2.34846 48.5591 2.41028 48.6132 2.48063 48.6528C2.55099 48.6923 2.6284 48.7166 2.70815 48.7242C2.78789 48.7317 2.86829 48.7225 2.94443 48.6968C3.02057 48.6711 3.09085 48.6296 3.15097 48.5749L10.9581 42.2226C11.0605 42.1418 11.1345 42.0284 11.1686 41.9C11.2028 41.7715 11.1953 41.6349 11.1472 41.5113C11.0992 41.3876 11.0133 41.2837 10.9027 41.2154C10.7921 41.1471 10.6629 41.1172 10.5348 41.1321Z" fill="#1188EE"/>
<path fill-rule="evenodd" clip-rule="evenodd" d="M13.6908 43.3923C13.5582 43.3993 13.4317 43.4526 13.332 43.5433L3.85945 51.9416C3.79911 51.9932 3.74932 52.0569 3.71301 52.1287C3.67671 52.2004 3.6546 52.279 3.64799 52.3597C3.64138 52.4404 3.6504 52.5215 3.67453 52.5985C3.69865 52.6756 3.7374 52.7471 3.78849 52.8085C3.83958 52.8699 3.902 52.9202 3.97209 52.9563C4.04218 52.9924 4.11853 53.0135 4.19668 53.0187C4.27483 53.024 4.3532 53.0131 4.42722 52.9866C4.50124 52.9602 4.56941 52.9187 4.62775 52.8647L14.1003 44.4676C14.1951 44.3856 14.2625 44.2748 14.293 44.1509C14.3235 44.027 14.3155 43.8963 14.2703 43.7774C14.225 43.6584 14.1446 43.5571 14.0406 43.488C13.9366 43.4189 13.8143 43.3854 13.6908 43.3923Z" fill="#1188EE"/>
<path fill-rule="evenodd" clip-rule="evenodd" d="M16.0831 46.7278C15.9499 46.7362 15.8233 46.7911 15.7243 46.8836L5.9389 55.7101C5.87775 55.7617 5.82724 55.8253 5.79039 55.8975C5.75353 55.9696 5.73108 56.049 5.72437 56.1303C5.71765 56.2117 5.72681 56.2933 5.7513 56.3709C5.77579 56.4485 5.81511 56.5202 5.86693 56.5818C5.91874 56.6433 5.98199 56.6938 6.05292 56.7296C6.12385 56.7654 6.20101 56.7859 6.27982 56.7902C6.35863 56.7946 6.43749 56.7826 6.51169 56.7548C6.5859 56.727 6.65395 56.684 6.71179 56.6284L16.4972 47.8019C16.5924 47.7197 16.66 47.6081 16.6904 47.4837C16.7209 47.3593 16.7126 47.2282 16.6666 47.109C16.6207 46.9898 16.5396 46.8887 16.4348 46.82C16.33 46.7513 16.2069 46.7198 16.0831 46.7278Z" fill="#1188EE"/>
<path fill-rule="evenodd" clip-rule="evenodd" d="M18.7008 49.7445C18.5674 49.7485 18.4393 49.799 18.3374 49.8881L7.6181 59.0385C7.49731 59.1414 7.42097 59.2896 7.40588 59.4507C7.39079 59.6118 7.43817 59.7721 7.53761 59.8971C7.63706 60.022 7.78041 60.1012 7.93613 60.1168C8.09186 60.1325 8.2472 60.0832 8.36799 59.9803L19.0873 50.8303C19.184 50.7505 19.2539 50.6413 19.2871 50.518C19.3204 50.3948 19.3153 50.2637 19.2725 50.1436C19.2297 50.0235 19.1515 49.9204 19.0489 49.8489C18.9462 49.7774 18.8245 49.7404 18.7008 49.7445Z" fill="#1188EE"/>
<path fill-rule="evenodd" clip-rule="evenodd" d="M21.1851 53.5131C21.0724 53.5194 20.9638 53.5592 20.8723 53.6276L9.83557 61.7023C9.77242 61.7485 9.7187 61.807 9.67747 61.8747C9.63624 61.9425 9.60831 62.018 9.59527 62.0969C9.58224 62.1758 9.58435 62.2565 9.60149 62.3345C9.61864 62.4125 9.65047 62.4863 9.69518 62.5516C9.73989 62.6169 9.79661 62.6725 9.86208 62.7152C9.92755 62.7578 10.0005 62.7864 10.0768 62.7999C10.153 62.8134 10.2311 62.8114 10.3065 62.7937C10.382 62.7759 10.4533 62.743 10.5164 62.6967L21.5532 54.622C21.6585 54.5464 21.7372 54.4373 21.7772 54.3112C21.8171 54.1852 21.8162 54.0492 21.7746 53.9238C21.7329 53.7983 21.6528 53.6903 21.5464 53.6162C21.44 53.5422 21.3132 53.5058 21.1851 53.5131Z" fill="#1188EE"/>
<path fill-rule="evenodd" clip-rule="evenodd" d="M24.3457 55.6638C24.2124 55.6625 24.0827 55.708 23.9776 55.7928L13.6724 63.8678C13.548 63.9656 13.4662 64.1103 13.4451 64.2705C13.424 64.4307 13.4652 64.5929 13.5598 64.7216C13.6543 64.8503 13.7944 64.935 13.9493 64.9569C14.1042 64.9787 14.2611 64.936 14.3855 64.8382L24.6907 56.7638C24.7902 56.6879 24.864 56.5816 24.9018 56.4599C24.9396 56.3382 24.9394 56.2071 24.9012 56.0855C24.863 55.9639 24.7889 55.8577 24.6891 55.7821C24.5894 55.7066 24.4693 55.6648 24.3457 55.6638Z" fill="#1188EE"/>
<path fill-rule="evenodd" clip-rule="evenodd" d="M27.4787 57.9239C27.3454 57.9227 27.2156 57.9681 27.1106 58.053L15.9681 66.5559C15.9044 66.6029 15.8504 66.6624 15.8093 66.7311C15.7681 66.7998 15.7405 66.8761 15.7282 66.9559C15.7159 67.0358 15.7191 67.1174 15.7376 67.1959C15.7561 67.2745 15.7895 67.3486 15.8359 67.4136C15.8824 67.4787 15.9408 67.5333 16.0079 67.5748C16.0751 67.6162 16.1495 67.6437 16.2269 67.6551C16.3043 67.6665 16.3831 67.6616 16.4587 67.6411C16.5343 67.6207 16.6053 67.5849 16.6674 67.5358L27.8099 59.0284C27.9104 58.9539 27.9857 58.8484 28.0251 58.7272C28.0645 58.6059 28.066 58.4749 28.0293 58.3528C27.9927 58.2306 27.9197 58.1234 27.8209 58.0465C27.7221 57.9695 27.6023 57.9265 27.4787 57.9239Z" fill="#1188EE"/>
<path fill-rule="evenodd" clip-rule="evenodd" d="M30.6116 60.5076C30.4577 60.501 30.3075 60.5568 30.193 60.6634L21.1391 68.8479C21.078 68.8995 21.0274 68.9631 20.9906 69.0352C20.9537 69.1074 20.9313 69.1868 20.9246 69.2681C20.9179 69.3494 20.927 69.4311 20.9515 69.5087C20.976 69.5863 21.0153 69.658 21.0671 69.7195C21.1189 69.7811 21.1822 69.8316 21.2531 69.8673C21.3241 69.9031 21.4012 69.9237 21.48 69.928C21.5588 69.9324 21.6377 69.9204 21.7119 69.8926C21.7861 69.8648 21.8542 69.8218 21.912 69.7662L30.9705 61.5821C31.0618 61.5028 31.1277 61.3966 31.1595 61.2779C31.1913 61.1591 31.1875 61.0333 31.1486 60.9168C31.1097 60.8003 31.0376 60.6986 30.9417 60.6254C30.8458 60.5522 30.7307 60.5117 30.6116 60.5076Z" fill="#1188EE"/>
<path fill-rule="evenodd" clip-rule="evenodd" d="M34.4071 63.4149C34.2543 63.4236 34.1107 63.4934 34.0068 63.6097L27.3452 70.8235C27.2918 70.8813 27.2498 70.9494 27.2218 71.0239C27.1938 71.0985 27.1803 71.178 27.182 71.258C27.1837 71.338 27.2006 71.4167 27.2318 71.49C27.263 71.5632 27.3078 71.6294 27.3637 71.6847C27.4195 71.74 27.4854 71.7834 27.5575 71.8123C27.6296 71.8413 27.7065 71.8551 27.7838 71.8534C27.8611 71.8516 27.9374 71.8342 28.0082 71.8019C28.0789 71.7697 28.1429 71.7235 28.1964 71.6657L34.8579 64.4519C34.9419 64.3645 34.9982 64.2529 35.0195 64.1317C35.0408 64.0104 35.026 63.8854 34.9772 63.773C34.9284 63.6606 34.8477 63.5664 34.7459 63.5024C34.6442 63.4384 34.526 63.4081 34.4071 63.4149Z" fill="#1188EE"/>
</svg>
