<svg width="183" height="340" viewBox="0 0 183 340" fill="none" xmlns="http://www.w3.org/2000/svg">
<path fill-rule="evenodd" clip-rule="evenodd" d="M45.8617 218.984C42.6105 218.947 39.355 219.183 36.1592 219.736C32.2987 220.401 28.1708 221.43 24.7774 223.899C22.0687 225.87 20.1152 228.749 18.6679 231.645C17.1723 234.638 16.1795 238.017 16.0364 241.438C15.8323 246.28 16.4568 251.463 18.6679 255.903C22.1253 262.846 27.5189 269.534 34.5306 272.894C39.7725 275.407 46.029 275.367 51.4882 274.041C58.004 272.459 64.416 268.851 68.8875 263.611C72.7675 259.064 74.7926 252.98 75.6457 247.152C76.3356 242.44 76.0948 237.292 74.2379 232.792C72.7347 229.149 70.002 226.058 66.8955 223.885C63.4721 221.49 59.3631 220.554 55.5367 219.888C52.3575 219.334 49.113 219.021 45.8617 218.984ZM45.8341 221.42C48.9566 221.456 52.0821 221.757 55.1457 222.291C58.8789 222.941 62.6486 223.855 65.5751 225.902C68.3497 227.844 70.7869 230.637 72.0711 233.748C73.6989 237.693 73.9569 242.425 73.3178 246.791C72.5117 252.297 70.5749 257.955 67.1209 262.003C63.0372 266.788 57.0205 270.197 50.95 271.672C45.8778 272.903 40.0931 272.878 35.5197 270.687C29.1801 267.648 24.0414 261.376 20.7612 254.789C18.812 250.875 18.2003 246.088 18.3919 241.542C18.5173 238.542 19.4033 235.48 20.7612 232.764C22.1009 230.082 23.8794 227.534 26.1346 225.893C29.037 223.781 32.813 222.782 36.5456 222.138C39.5943 221.613 42.7117 221.384 45.8341 221.42Z" fill="#EFF4F9"/>
<path fill-rule="evenodd" clip-rule="evenodd" d="M19.9285 231.127C19.6946 231.141 19.4701 231.226 19.2836 231.373C19.0971 231.52 18.9572 231.72 18.8816 231.95C18.8061 232.179 18.7983 232.427 18.8594 232.661C18.9205 232.894 19.0476 233.104 19.2246 233.263C19.2246 233.263 20.3275 234.282 21.7641 235.433C23.2006 236.583 24.9278 237.879 26.498 238.516C33.1507 241.217 40.4722 241.555 47.4029 241.49C62.0652 241.354 73.4052 234.981 73.4052 234.981C73.5452 234.907 73.6695 234.805 73.7707 234.68C73.8719 234.556 73.9481 234.412 73.9947 234.257C74.0413 234.102 74.0574 233.938 74.042 233.777C74.0266 233.615 73.9801 233.458 73.9052 233.315C73.8303 233.172 73.7285 233.046 73.6058 232.945C73.4832 232.843 73.342 232.768 73.1908 232.724C73.0396 232.679 72.8814 232.667 72.7254 232.687C72.5695 232.707 72.4189 232.759 72.2827 232.84C72.2827 232.84 61.3937 238.923 47.3799 239.054C40.5424 239.117 33.5228 238.749 27.3583 236.246C26.3053 235.819 24.5759 234.601 23.2087 233.506C21.8414 232.411 20.7934 231.445 20.7934 231.445C20.6772 231.335 20.5407 231.25 20.3922 231.195C20.2436 231.141 20.0859 231.117 19.9285 231.127Z" fill="#EFF4F9"/>
<path fill-rule="evenodd" clip-rule="evenodd" d="M74.1505 239.806C73.8452 239.818 73.5565 239.953 73.3454 240.182C73.3454 240.182 72.8144 240.739 72.1217 241.395C71.429 242.051 70.5421 242.81 70.056 243.098C67.1893 244.801 63.8951 245.87 60.5651 246.538C57.7198 247.11 51.1064 246.971 51.1064 246.971C50.9517 246.967 50.7976 246.994 50.6531 247.051C50.5085 247.108 50.3762 247.195 50.2638 247.305C50.1514 247.415 50.061 247.547 49.9979 247.693C49.9348 247.839 49.9001 247.996 49.8959 248.156C49.8916 248.316 49.9179 248.476 49.9733 248.625C50.0286 248.775 50.1118 248.911 50.2183 249.028C50.3247 249.144 50.4522 249.237 50.5935 249.302C50.7349 249.368 50.8873 249.403 51.042 249.408C51.042 249.408 57.4958 249.639 61.016 248.932C64.5211 248.228 68.0583 247.095 71.2292 245.211C72.0876 244.701 72.9705 243.902 73.7135 243.198C74.4564 242.495 75.0246 241.894 75.0246 241.894C75.1936 241.722 75.3082 241.5 75.3533 241.259C75.3984 241.018 75.3719 240.768 75.2774 240.543C75.1829 240.317 75.0247 240.127 74.8236 239.996C74.6225 239.866 74.3879 239.801 74.1505 239.81L74.1505 239.806Z" fill="#EFF4F9"/>
<path fill-rule="evenodd" clip-rule="evenodd" d="M73.1936 250.34C73.0084 250.346 72.8271 250.397 72.6645 250.489C72.6645 250.489 66.5163 253.755 63.5555 254.633C61.571 255.222 56.7236 255.656 56.7236 255.656C56.4119 255.682 56.1226 255.834 55.9194 256.08C55.7162 256.325 55.6158 256.645 55.6402 256.967C55.6646 257.29 55.8118 257.589 56.0495 257.799C56.2872 258.009 56.5959 258.113 56.9077 258.088C56.9077 258.088 61.6124 257.743 64.2041 256.974C67.7723 255.916 73.7549 252.649 73.7549 252.649C73.9951 252.525 74.1872 252.32 74.2994 252.068C74.4115 251.816 74.4369 251.531 74.3714 251.262C74.3059 250.993 74.1535 250.755 73.9393 250.587C73.7251 250.42 73.462 250.332 73.1936 250.34Z" fill="#EFF4F9"/>
<path fill-rule="evenodd" clip-rule="evenodd" d="M46.4966 224.208C44.3319 224.232 41.5622 224.279 38.9241 224.484C36.2845 224.689 33.8097 225.018 32.0233 225.74C28.6198 227.116 26.9719 229.713 26.9719 229.713C26.8869 229.849 26.8287 230 26.8008 230.159C26.7728 230.318 26.7756 230.48 26.809 230.638C26.8424 230.796 26.9057 230.945 26.9952 231.077C27.0848 231.209 27.1989 231.321 27.3307 231.407C27.3307 231.407 32.633 234.922 37.5072 235.985C42.2876 237.027 50.1619 237.069 54.9846 236.06C59.9049 235.032 65.3819 231.487 65.3819 231.487C65.5405 231.386 65.6736 231.247 65.7702 231.083C65.8669 230.918 65.9243 230.731 65.9378 230.539C65.9512 230.347 65.9204 230.154 65.8477 229.976C65.7751 229.799 65.6627 229.641 65.5199 229.517C65.5199 229.517 62.0468 226.402 58.5731 225.254C55.1974 224.138 50.8204 224.168 46.5012 224.207L46.4966 224.208ZM46.5197 226.644C50.8224 226.605 55.0826 226.669 57.8555 227.577C59.8312 228.23 61.2692 229.511 62.3962 230.389C60.6079 231.41 57.5785 233.033 54.5201 233.672C50.2314 234.569 42.244 234.527 37.9949 233.601C34.8123 232.908 31.6754 231.143 30.059 230.185C30.5656 229.561 30.9223 228.802 32.8791 228.011C34.1588 227.494 36.5535 227.114 39.099 226.916C41.6445 226.719 44.3733 226.664 46.5197 226.644Z" fill="#EFF4F9"/>
<path fill-rule="evenodd" clip-rule="evenodd" d="M35.2667 213.802L33.017 214.52L39.1265 235.076L41.3762 234.357L35.2667 213.802Z" fill="#EFF4F9"/>
<path fill-rule="evenodd" clip-rule="evenodd" d="M66.7344 207.987C66.5889 207.991 66.4454 208.024 66.3112 208.082L56.3004 212.269C56.1147 212.347 55.9514 212.473 55.8258 212.635C55.7002 212.796 55.6165 212.988 55.5827 213.192L51.9713 234.738C51.945 234.896 51.949 235.057 51.9831 235.213C52.0172 235.369 52.0807 235.517 52.17 235.648C52.3503 235.912 52.6247 236.091 52.9328 236.146C53.0854 236.173 53.2416 236.169 53.3926 236.134C53.5436 236.099 53.6864 236.033 53.8128 235.941C54.0682 235.754 54.2415 235.47 54.2946 235.152L57.791 214.273L67.1945 210.342C67.4547 210.239 67.6712 210.044 67.8055 209.792C67.9398 209.539 67.9833 209.246 67.9281 208.963C67.8729 208.681 67.7227 208.428 67.5042 208.249C67.2856 208.07 67.0129 207.978 66.7344 207.987Z" fill="#EFF4F9"/>
<path fill-rule="evenodd" clip-rule="evenodd" d="M32.7042 206.165C32.538 206.171 32.375 206.214 32.2259 206.29C32.0768 206.367 31.9451 206.475 31.8393 206.608L24.2576 216.048C24.0993 216.246 24.0057 216.491 23.9902 216.748C23.9747 217.004 24.0382 217.259 24.1714 217.476C24.3047 217.694 24.501 217.862 24.7321 217.956C24.9633 218.051 25.2175 218.067 25.4583 218.003L44.2286 212.979C44.4703 212.914 44.6858 212.771 44.844 212.572C45.0023 212.372 45.095 212.125 45.1088 211.867C45.1226 211.609 45.0568 211.353 44.9209 211.137C44.785 210.92 44.5861 210.754 44.3528 210.662L33.1642 206.246C33.0176 206.188 32.8612 206.16 32.7042 206.165ZM33.1136 208.829L40.0651 211.575L28.4027 214.696L33.1136 208.829Z" fill="#EFF4F9"/>
<path fill-rule="evenodd" clip-rule="evenodd" d="M31.8071 203.001C31.6224 203.008 31.442 203.061 31.2805 203.154C31.119 203.247 30.981 203.378 30.8775 203.536C30.774 203.695 30.7081 203.876 30.6849 204.066C30.6618 204.255 30.6822 204.448 30.7443 204.628L31.7013 207.55C31.7488 207.704 31.8255 207.846 31.927 207.969C32.0284 208.093 32.1525 208.194 32.2921 208.267C32.4317 208.339 32.5839 208.383 32.7399 208.394C32.8959 208.406 33.0525 208.385 33.2007 208.333C33.3488 208.281 33.4855 208.2 33.6028 208.093C33.72 207.986 33.8155 207.856 33.8836 207.71C33.9517 207.564 33.9911 207.406 33.9995 207.245C34.0079 207.083 33.9852 206.921 33.9325 206.769L32.9756 203.848C32.8972 203.594 32.7405 203.373 32.5294 203.22C32.3184 203.067 32.0646 202.99 31.8071 203.001Z" fill="#EFF4F9"/>
<path fill-rule="evenodd" clip-rule="evenodd" d="M24.2714 240.962C24.1598 240.971 24.0528 241.012 23.9631 241.081L17.0899 246.139C17.0268 246.186 16.9731 246.245 16.932 246.313C16.8909 246.381 16.8632 246.456 16.8504 246.536C16.8376 246.615 16.8399 246.696 16.8573 246.774C16.8748 246.852 16.9069 246.926 16.9519 246.991C16.9969 247.056 17.0539 247.112 17.1197 247.154C17.1854 247.197 17.2586 247.226 17.3351 247.239C17.4115 247.252 17.4898 247.25 17.5653 247.232C17.6409 247.214 17.7123 247.18 17.7754 247.134L24.644 242.071C24.7499 241.995 24.8288 241.886 24.8687 241.759C24.9087 241.633 24.9074 241.496 24.8651 241.37C24.8229 241.244 24.7419 241.137 24.6347 241.063C24.5275 240.989 24.3998 240.953 24.2714 240.962Z" fill="#EFF4F9"/>
<path fill-rule="evenodd" clip-rule="evenodd" d="M26.5348 243.655C26.4234 243.669 26.318 243.715 26.2312 243.789L18.4241 250.142C18.3585 250.189 18.303 250.25 18.2609 250.32C18.2188 250.391 18.1911 250.47 18.1793 250.551C18.1676 250.633 18.1722 250.717 18.1928 250.797C18.2133 250.877 18.2495 250.952 18.299 251.017C18.3485 251.082 18.4103 251.136 18.4806 251.176C18.551 251.215 18.6284 251.239 18.7081 251.247C18.7879 251.255 18.8683 251.245 18.9444 251.22C19.0206 251.194 19.0908 251.152 19.151 251.098L26.9581 244.746C27.0605 244.665 27.1345 244.551 27.1686 244.423C27.2028 244.294 27.1953 244.158 27.1472 244.034C27.0992 243.911 27.0133 243.807 26.9027 243.738C26.7921 243.67 26.6629 243.64 26.5348 243.655Z" fill="#EFF4F9"/>
<path fill-rule="evenodd" clip-rule="evenodd" d="M29.6908 245.915C29.5582 245.922 29.4317 245.975 29.332 246.066L19.8595 254.464C19.7991 254.516 19.7493 254.58 19.713 254.652C19.6767 254.723 19.6546 254.802 19.648 254.883C19.6414 254.963 19.6504 255.044 19.6745 255.121C19.6987 255.198 19.7374 255.27 19.7885 255.331C19.8396 255.393 19.902 255.443 19.9721 255.479C20.0422 255.515 20.1185 255.536 20.1967 255.542C20.2748 255.547 20.3532 255.536 20.4272 255.51C20.5012 255.483 20.5694 255.442 20.6277 255.388L30.1003 246.991C30.1951 246.908 30.2625 246.798 30.293 246.674C30.3235 246.55 30.3155 246.419 30.2703 246.3C30.225 246.181 30.1446 246.08 30.0406 246.011C29.9366 245.942 29.8143 245.908 29.6908 245.915Z" fill="#EFF4F9"/>
<path fill-rule="evenodd" clip-rule="evenodd" d="M32.0831 249.251C31.9499 249.259 31.8233 249.314 31.7243 249.406L21.9389 258.233C21.8777 258.285 21.8272 258.348 21.7904 258.42C21.7535 258.493 21.7311 258.572 21.7244 258.653C21.7177 258.735 21.7268 258.816 21.7513 258.894C21.7758 258.971 21.8151 259.043 21.8669 259.105C21.9187 259.166 21.982 259.217 22.0529 259.252C22.1239 259.288 22.201 259.309 22.2798 259.313C22.3586 259.317 22.4375 259.306 22.5117 259.278C22.5859 259.25 22.6539 259.207 22.7118 259.151L32.4972 250.325C32.5924 250.243 32.66 250.131 32.6904 250.007C32.7209 249.882 32.7126 249.751 32.6666 249.632C32.6207 249.513 32.5396 249.412 32.4348 249.343C32.33 249.274 32.2069 249.243 32.0831 249.251Z" fill="#EFF4F9"/>
<path fill-rule="evenodd" clip-rule="evenodd" d="M34.7008 252.267C34.5674 252.271 34.4393 252.322 34.3374 252.411L23.6181 261.561C23.4973 261.664 23.421 261.813 23.4059 261.974C23.3908 262.135 23.4382 262.295 23.5376 262.42C23.6371 262.545 23.7804 262.624 23.9361 262.64C24.0919 262.655 24.2472 262.606 24.368 262.503L35.0873 253.353C35.184 253.273 35.2539 253.164 35.2871 253.041C35.3204 252.918 35.3153 252.787 35.2725 252.666C35.2297 252.546 35.1515 252.443 35.0489 252.372C34.9462 252.3 34.8245 252.263 34.7008 252.267Z" fill="#EFF4F9"/>
<path fill-rule="evenodd" clip-rule="evenodd" d="M37.1851 256.036C37.0724 256.042 36.9638 256.082 36.8723 256.15L25.8356 264.225C25.7724 264.271 25.7187 264.33 25.6775 264.398C25.6362 264.465 25.6083 264.541 25.5953 264.62C25.5822 264.699 25.5844 264.779 25.6015 264.857C25.6186 264.935 25.6505 265.009 25.6952 265.074C25.7399 265.14 25.7966 265.195 25.8621 265.238C25.9276 265.281 26.0005 265.309 26.0768 265.323C26.153 265.336 26.2311 265.334 26.3065 265.317C26.382 265.299 26.4533 265.266 26.5164 265.22L37.5532 257.145C37.6585 257.069 37.7372 256.96 37.7772 256.834C37.8171 256.708 37.8162 256.572 37.7746 256.447C37.7329 256.321 37.6528 256.213 37.5464 256.139C37.44 256.065 37.3132 256.029 37.1851 256.036Z" fill="#EFF4F9"/>
<path fill-rule="evenodd" clip-rule="evenodd" d="M40.3457 258.187C40.2124 258.185 40.0827 258.231 39.9776 258.316L29.6724 266.391C29.548 266.489 29.4662 266.633 29.4451 266.793C29.424 266.954 29.4652 267.116 29.5598 267.245C29.6543 267.373 29.7944 267.458 29.9493 267.48C30.1042 267.502 30.2611 267.459 30.3855 267.361L40.6907 259.287C40.7902 259.211 40.864 259.104 40.9018 258.983C40.9396 258.861 40.9394 258.73 40.9012 258.608C40.863 258.487 40.7889 258.381 40.6891 258.305C40.5894 258.229 40.4693 258.188 40.3457 258.187Z" fill="#EFF4F9"/>
<path fill-rule="evenodd" clip-rule="evenodd" d="M43.4787 260.447C43.3454 260.446 43.2156 260.491 43.1106 260.576L31.9681 269.079C31.9044 269.126 31.8504 269.185 31.8093 269.254C31.7681 269.323 31.7405 269.399 31.7282 269.479C31.7159 269.559 31.7191 269.64 31.7376 269.719C31.7561 269.797 31.7895 269.871 31.8359 269.937C31.8824 270.002 31.9408 270.056 32.0079 270.098C32.0751 270.139 32.1495 270.167 32.2269 270.178C32.3043 270.189 32.3831 270.184 32.4587 270.164C32.5343 270.144 32.6053 270.108 32.6674 270.059L43.8099 261.551C43.9104 261.477 43.9857 261.371 44.0251 261.25C44.0645 261.129 44.066 260.998 44.0293 260.876C43.9927 260.753 43.9197 260.646 43.8209 260.569C43.7221 260.492 43.6023 260.449 43.4787 260.447Z" fill="#EFF4F9"/>
<path fill-rule="evenodd" clip-rule="evenodd" d="M46.6116 263.031C46.4577 263.024 46.3075 263.08 46.193 263.186L37.1391 271.371C37.078 271.422 37.0274 271.486 36.9906 271.558C36.9537 271.63 36.9313 271.71 36.9246 271.791C36.9179 271.872 36.927 271.954 36.9515 272.032C36.976 272.109 37.0153 272.181 37.0671 272.242C37.1189 272.304 37.1822 272.354 37.2531 272.39C37.3241 272.426 37.4012 272.447 37.48 272.451C37.5588 272.455 37.6377 272.443 37.7119 272.416C37.7861 272.388 37.8542 272.345 37.912 272.289L46.9705 264.105C47.0618 264.026 47.1277 263.92 47.1595 263.801C47.1913 263.682 47.1875 263.556 47.1486 263.44C47.1097 263.323 47.0376 263.221 46.9417 263.148C46.8458 263.075 46.7307 263.035 46.6116 263.031Z" fill="#EFF4F9"/>
<path fill-rule="evenodd" clip-rule="evenodd" d="M50.4071 265.938C50.2543 265.947 50.1107 266.016 50.0068 266.133L43.3452 273.346C43.2918 273.404 43.2498 273.472 43.2218 273.547C43.1938 273.621 43.1803 273.701 43.182 273.781C43.1837 273.861 43.2006 273.94 43.2318 274.013C43.263 274.086 43.3078 274.152 43.3637 274.208C43.4195 274.263 43.4854 274.306 43.5575 274.335C43.6296 274.364 43.7065 274.378 43.7838 274.376C43.8611 274.374 43.9374 274.357 44.0082 274.325C44.0789 274.293 44.1429 274.246 44.1964 274.189L50.8579 266.975C50.9419 266.887 50.9982 266.776 51.0195 266.655C51.0408 266.533 51.026 266.408 50.9772 266.296C50.9284 266.184 50.8477 266.089 50.7459 266.025C50.6442 265.961 50.526 265.931 50.4071 265.938Z" fill="#EFF4F9"/>
<path fill-rule="evenodd" clip-rule="evenodd" d="M47.2046 75.6417C47.0678 75.5294 46.9063 75.4508 46.7302 75.4105C46.5541 75.3702 46.3671 75.369 46.1805 75.4073C46.1805 75.4073 38.8526 76.884 35.0441 78.0184C32.7746 78.694 30.2071 79.2275 27.756 80.6852C25.8852 81.7976 23.9861 83.2564 22.5855 85.2324C21.2678 87.0922 20.7017 89.1719 20.2508 91.0051C19.557 93.8257 19.4825 98.5552 19.4825 98.5552C19.4773 98.7412 19.5078 98.9214 19.5719 99.0859C19.636 99.2503 19.7326 99.3957 19.8563 99.5134C19.98 99.6312 20.1284 99.719 20.2928 99.7721C20.4572 99.8252 20.6346 99.8424 20.8148 99.8228C20.9949 99.8033 21.1742 99.7473 21.3426 99.6579C21.511 99.5686 21.6651 99.4479 21.7961 99.3025C21.9271 99.1571 22.0326 98.9897 22.1063 98.8103C22.1799 98.6309 22.2205 98.4429 22.2256 98.2568C22.2256 98.2568 22.4216 93.3163 22.904 91.3547C23.3342 89.6061 23.8469 87.936 24.7142 86.7119C25.7168 85.2974 27.2452 84.0779 28.8685 83.1126C30.7461 81.9959 33.0545 81.4649 35.4644 80.7473C38.4633 79.8543 43.2771 78.8765 44.8506 78.5505C44.8632 80.1166 44.9275 84.3405 44.6036 86.9992C44.288 89.588 44.0002 92.0967 43.0787 94.247C42.1968 96.305 40.8932 98.2902 39.3202 99.8263C38.3265 100.796 37.0275 101.571 35.6789 102.126C35.1011 102.364 33.8332 102.655 32.7988 102.832C31.7646 103.009 30.9353 103.102 30.9353 103.102C30.755 103.123 30.5755 103.18 30.4072 103.27C30.2389 103.36 30.085 103.481 29.9544 103.628C29.8237 103.774 29.719 103.941 29.6459 104.121C29.5728 104.301 29.5331 104.489 29.5287 104.675C29.5243 104.861 29.5553 105.042 29.6202 105.206C29.6851 105.37 29.7826 105.515 29.907 105.632C30.0314 105.75 30.1804 105.837 30.3453 105.889C30.5102 105.942 30.688 105.958 30.8683 105.937C30.8683 105.937 31.7706 105.83 32.887 105.639C34.0036 105.448 35.3047 105.201 36.3837 104.756C38.009 104.087 39.6587 103.139 41.052 101.78C42.9942 99.8831 44.5136 97.5389 45.5559 95.1063C46.737 92.3504 47.009 89.5415 47.3203 86.9877C47.7695 83.3005 47.6338 76.5948 47.6338 76.5948C47.6311 76.4059 47.5913 76.2246 47.517 76.0617C47.4426 75.8987 47.335 75.7577 47.2009 75.6466L47.2046 75.6417Z" fill="#EFF4F9"/>
<path fill-rule="evenodd" clip-rule="evenodd" d="M57.5547 67.8035C55.3349 65.2043 51.6757 64.902 48.7698 64.6617C46.057 64.4374 43.0682 64.7219 40.2744 65.9838C37.1463 67.3967 34.4788 69.8422 32.3028 72.3928C31.0129 73.9056 29.778 76.11 28.7768 78.0092C27.7756 79.9084 27.0515 81.4816 27.0515 81.4816L29.4958 82.4182C29.4958 82.4182 30.1887 80.9184 31.1438 79.1066C32.0991 77.2945 33.3647 75.1506 34.2486 74.1138C36.2231 71.7995 38.5726 69.7041 41.0723 68.5749C43.2602 67.5868 45.8185 67.3048 48.1972 67.5014C51.043 67.7366 53.9825 68.1891 55.3984 69.8464C56.6748 71.341 56.9872 74.1223 56.6868 76.6443C56.3739 79.2706 55.0194 82.0928 53.2658 84.4151C52.0953 85.9651 49.8653 87.0378 47.7469 88.9104C46.4461 90.0603 44.139 92.3168 44.139 92.3168L45.8742 94.2657C45.8742 94.2657 48.229 91.9704 49.3594 90.971L49.3553 90.9678C50.9672 89.5431 53.4866 88.429 55.3352 85.9812C57.3716 83.2843 59.0076 79.9935 59.4099 76.6157C59.7652 73.6336 59.5546 70.1448 57.5547 67.8035Z" fill="#EFF4F9"/>
<path fill-rule="evenodd" clip-rule="evenodd" d="M20.7693 91.0759C20.7693 91.0759 13.6982 97.9115 10.57 102.243C8.83835 104.638 6.31745 107.416 5.79316 110.982L5.78913 110.979C5.29245 114.354 6.12619 117.897 8.19778 120.261C10.1547 122.494 13.237 123.369 16.1346 123.331C19.4343 123.288 22.8482 121.873 25.6254 119.803C28.534 117.635 30.0467 114.414 31.7328 112.027C33.5536 109.453 36.6562 104.371 36.6562 104.371L34.395 103.084C34.395 103.084 31.2446 108.229 29.6004 110.553C27.6861 113.26 26.2624 116.05 24.2306 117.564C21.9266 119.281 19.0294 120.448 16.4725 120.482C14.1558 120.512 11.6724 119.722 10.3372 118.199C8.84047 116.491 8.13004 113.574 8.50306 111.038C8.84065 108.742 10.8197 106.329 12.6849 103.749C15.352 100.056 22.5009 93.0298 22.5009 93.0298L20.7693 91.0759Z" fill="#EFF4F9"/>
<path fill-rule="evenodd" clip-rule="evenodd" d="M49.0798 72.9036C48.8062 72.6947 48.4488 72.6191 48.0859 72.6939C47.7229 72.7686 47.3843 72.9874 47.1445 73.302L45.0329 75.9998C44.912 76.1539 44.8187 76.3271 44.7581 76.5101C44.6975 76.693 44.6708 76.8819 44.6797 77.0658C44.6886 77.2497 44.7328 77.4252 44.8099 77.5821C44.887 77.739 44.9954 77.8742 45.1289 77.9802C45.2624 78.0861 45.4186 78.1605 45.5882 78.1995C45.7578 78.2384 45.9376 78.241 46.1175 78.2069C46.2974 78.1729 46.4738 78.103 46.6366 78.0011C46.7994 77.8993 46.9454 77.7677 47.0663 77.6135L49.1814 74.9111C49.306 74.7555 49.4025 74.5793 49.465 74.3933C49.5274 74.2073 49.5545 74.0153 49.5449 73.8283C49.5354 73.6412 49.4894 73.4628 49.4094 73.3042C49.3294 73.1455 49.2177 73.0088 49.0798 72.9036Z" fill="#EFF4F9"/>
<path fill-rule="evenodd" clip-rule="evenodd" d="M72.9513 95.1269C72.8071 95.0234 72.6398 94.9547 72.4598 94.9253C72.2798 94.8959 72.0908 94.9063 71.9047 94.9559C71.9047 94.9559 65.4144 96.6468 61.9878 98.0807C59.6145 99.074 56.9852 100.099 54.6537 101.984C52.5958 103.648 50.7524 105.747 49.4546 108.131C48.5252 109.841 48.0607 111.687 47.8583 113.432C47.7238 114.592 47.8392 115.911 47.9587 117.038C48.0783 118.164 48.2196 119.062 48.2196 119.062C48.2489 119.241 48.3129 119.407 48.4081 119.552C48.5034 119.696 48.628 119.816 48.7746 119.904C48.9212 119.991 49.087 120.046 49.2627 120.064C49.4383 120.082 49.6203 120.063 49.7983 120.008C49.9763 119.953 50.1468 119.863 50.3 119.744C50.4532 119.625 50.5861 119.479 50.6911 119.313C50.7962 119.148 50.8715 118.967 50.9124 118.78C50.9534 118.594 50.9593 118.406 50.9299 118.227C50.9299 118.227 50.7944 117.404 50.6836 116.36C50.5729 115.317 50.5088 114.017 50.5808 113.397C50.7489 111.948 51.1424 110.487 51.8053 109.267C52.8564 107.336 54.4125 105.542 56.1537 104.135C57.9728 102.664 60.309 101.705 62.7147 100.698C65.1855 99.6645 69.268 98.5789 70.7786 98.1657C70.8922 99.7685 71.2589 104.667 71.2141 107.796C71.1781 110.31 71.2941 112.676 70.7295 114.786C70.2414 116.611 69.4831 118.412 68.3942 119.762C67.4517 120.929 65.9835 121.876 64.4174 122.765C62.6606 123.762 57.9591 125.293 57.9591 125.293C57.7815 125.348 57.6115 125.439 57.4589 125.558C57.3063 125.678 57.1741 125.825 57.0697 125.99C56.9653 126.156 56.8908 126.337 56.8506 126.523C56.8104 126.71 56.8052 126.897 56.8353 127.076C56.8653 127.255 56.9303 127.421 57.0261 127.564C57.1219 127.708 57.2467 127.827 57.3936 127.914C57.5405 128.001 57.7064 128.055 57.8821 128.072C58.0578 128.089 58.2397 128.069 58.4174 128.014C58.4174 128.014 62.9488 126.657 65.4748 125.223C67.1166 124.291 68.9641 123.182 70.3961 121.409C71.9172 119.524 72.8053 117.3 73.3678 115.197C74.1048 112.442 73.9209 109.827 73.9546 107.459C74.0117 103.485 73.4424 96.0319 73.4424 96.0319C73.4287 95.8457 73.3785 95.6691 73.2948 95.5129C73.211 95.3567 73.0954 95.2239 72.9548 95.1223L72.9513 95.1269Z" fill="#EFF4F9"/>
<path fill-rule="evenodd" clip-rule="evenodd" d="M77.6669 83.0247C74.8704 81.7361 71.4555 82.481 68.682 83.633C65.5405 84.9377 62.8178 87.4061 60.7756 90.0986C58.922 92.5426 58.5341 95.2699 57.6008 97.2081L57.5966 97.205C56.9419 98.5645 55.3725 101.454 55.3725 101.454L57.7195 102.595C57.7195 102.595 59.2644 99.7615 60.0178 98.1972C61.2445 95.6498 61.6711 93.2123 62.8449 91.6647C64.6035 89.3462 66.9516 87.276 69.3942 86.2615C71.7398 85.2873 74.5014 84.8324 76.2865 85.6549C78.2661 86.5673 79.5 89.2734 80.4995 91.9483C81.3348 94.1841 81.7583 96.7229 81.4017 99.0969C80.994 101.809 79.6156 104.64 77.9246 107.169C77.167 108.301 75.4474 110.101 73.963 111.513C72.4788 112.924 71.2236 113.999 71.2236 113.999L72.7889 116.096C72.7889 116.096 74.1062 114.972 75.6621 113.493C77.2179 112.013 79.0039 110.226 80.1095 108.574C81.9731 105.787 83.602 102.555 84.1121 99.161C84.5677 96.1294 84.0296 93.1757 83.0768 90.6259C82.0562 87.8944 80.7713 84.4551 77.6669 83.0247Z" fill="#EFF4F9"/>
<path fill-rule="evenodd" clip-rule="evenodd" d="M65.2619 124.749L62.9114 123.613C62.9114 123.613 58.0912 132.401 55.2618 135.971C53.2851 138.467 51.5002 141.028 49.3822 141.976C47.0434 143.024 44.0432 143.132 41.9931 142.156C40.1641 141.285 38.7292 139.109 38.1289 136.872C37.4667 134.402 37.8029 131.297 38.8297 128.613C39.7351 126.246 42.033 124.118 44.1189 121.54C45.9085 119.327 50.0048 114.897 50.0048 114.897L48.1514 113.07C48.1514 113.07 44.0983 117.442 42.1168 119.893C40.2783 122.164 37.5885 124.495 36.2923 127.883C35.0548 131.118 34.6206 134.788 35.4755 137.975C36.2261 140.774 37.905 143.503 40.5856 144.78C43.4236 146.132 47.0599 145.971 50.1733 144.576L50.1692 144.573C53.4584 143.1 55.4469 139.919 57.2822 137.602C60.6008 133.415 65.2583 124.753 65.2583 124.753L65.2619 124.749Z" fill="#EFF4F9"/>
<path fill-rule="evenodd" clip-rule="evenodd" d="M75.0285 92.5418C74.7464 92.3455 74.3854 92.2848 74.0242 92.3731C73.6631 92.4613 73.3315 92.6913 73.102 93.0126L71.0758 95.7823C70.8426 96.1018 70.7297 96.4885 70.7622 96.8568C70.7947 97.2252 70.97 97.545 71.2492 97.7464C71.5284 97.9478 71.8887 98.0142 72.251 97.9306C72.6133 97.8471 72.948 97.6204 73.1813 97.3009L75.2038 94.5361C75.3239 94.3764 75.415 94.1972 75.4714 94.0094C75.5278 93.8216 75.5483 93.6291 75.5321 93.443C75.5158 93.2569 75.4629 93.0811 75.3765 92.9262C75.2901 92.7712 75.1713 92.6411 75.0285 92.5418Z" fill="#EFF4F9"/>
<path fill-rule="evenodd" clip-rule="evenodd" d="M19.9478 99.7546C19.8268 99.6728 19.677 99.64 19.5227 99.6612L13.1615 100.465C12.9796 100.488 12.8044 100.585 12.6744 100.734C12.5444 100.882 12.4703 101.071 12.4683 101.259C12.4664 101.446 12.5366 101.617 12.6638 101.733C12.7911 101.85 12.9648 101.902 13.1467 101.879L19.5083 101.075C19.6517 101.057 19.7922 100.994 19.9103 100.894C20.0283 100.794 20.1179 100.662 20.1663 100.516C20.2148 100.371 20.2196 100.219 20.1803 100.083C20.141 99.9462 20.0601 99.8308 19.9478 99.7546Z" fill="#EFF4F9"/>
<path fill-rule="evenodd" clip-rule="evenodd" d="M19.2525 102.202C19.1144 102.105 18.9379 102.073 18.7602 102.113L10.1319 104.014C10.041 104.033 9.95207 104.07 9.87045 104.122C9.78884 104.175 9.716 104.243 9.65637 104.323C9.59674 104.402 9.55141 104.49 9.52305 104.583C9.4947 104.676 9.48385 104.772 9.49118 104.864C9.49852 104.957 9.52386 105.044 9.56574 105.122C9.60761 105.199 9.66531 105.265 9.73521 105.315C9.80512 105.365 9.88591 105.4 9.97295 105.415C10.06 105.431 10.1516 105.427 10.2422 105.406L18.8706 103.505C19.0073 103.475 19.138 103.405 19.2455 103.302C19.353 103.2 19.4324 103.07 19.4735 102.93C19.5147 102.789 19.5156 102.645 19.4763 102.515C19.437 102.385 19.3588 102.277 19.2525 102.202Z" fill="#EFF4F9"/>
<path fill-rule="evenodd" clip-rule="evenodd" d="M18.0509 105.26C17.9082 105.173 17.731 105.151 17.5562 105.199L8.18293 107.698C8.00226 107.747 7.838 107.865 7.72627 108.029C7.61453 108.192 7.56443 108.387 7.58707 108.57C7.60972 108.752 7.70339 108.908 7.84715 109.003C7.99091 109.099 8.17307 109.125 8.35375 109.077L17.723 106.575C17.8599 106.54 17.989 106.464 18.0932 106.357C18.1975 106.249 18.2723 106.116 18.3077 105.974C18.3431 105.832 18.3375 105.688 18.2917 105.561C18.2459 105.433 18.162 105.328 18.0509 105.26Z" fill="#EFF4F9"/>
<path fill-rule="evenodd" clip-rule="evenodd" d="M16.8695 108.333C16.7237 108.247 16.5437 108.229 16.3675 108.282L7.43086 110.775C7.33954 110.798 7.25131 110.839 7.17106 110.896C7.09081 110.953 7.02035 111.025 6.96386 111.107C6.90738 111.189 6.86595 111.281 6.84217 111.375C6.81839 111.47 6.81256 111.566 6.82525 111.658C6.83793 111.75 6.86879 111.835 6.91593 111.91C6.96308 111.985 7.02558 112.046 7.09972 112.092C7.17387 112.138 7.25816 112.166 7.34757 112.175C7.43698 112.184 7.52978 112.174 7.62031 112.146L16.5532 109.649C16.69 109.613 16.8183 109.536 16.9218 109.428C17.0253 109.32 17.0989 109.186 17.133 109.044C17.1672 108.902 17.1604 108.758 17.1134 108.631C17.0663 108.504 16.9814 108.4 16.8695 108.333Z" fill="#EFF4F9"/>
<path fill-rule="evenodd" clip-rule="evenodd" d="M16.4335 110.647C16.3539 110.596 16.2619 110.565 16.164 110.556C16.066 110.548 15.9645 110.562 15.8667 110.598L7.5727 113.578C7.4845 113.609 7.40097 113.658 7.3267 113.721C7.25244 113.784 7.18901 113.86 7.13997 113.944C7.09094 114.029 7.05735 114.121 7.04102 114.214C7.02469 114.308 7.02584 114.402 7.04469 114.49C7.06355 114.578 7.09973 114.659 7.1509 114.728C7.20207 114.797 7.26719 114.854 7.34289 114.894C7.41858 114.934 7.5032 114.957 7.5919 114.961C7.68059 114.966 7.77168 114.952 7.85987 114.92L16.1539 111.941C16.2835 111.896 16.4028 111.815 16.4976 111.707C16.5923 111.599 16.6584 111.469 16.688 111.333C16.7175 111.196 16.7093 111.059 16.6641 110.937C16.619 110.815 16.5389 110.715 16.4335 110.647Z" fill="#EFF4F9"/>
<path fill-rule="evenodd" clip-rule="evenodd" d="M15.6077 113.822C15.5275 113.772 15.4352 113.742 15.3374 113.735C15.2396 113.728 15.1386 113.743 15.0414 113.78L8.26948 116.261C8.1809 116.292 8.09687 116.341 8.02239 116.405C7.9479 116.468 7.88449 116.544 7.83557 116.629C7.78664 116.715 7.75328 116.807 7.73745 116.901C7.72161 116.995 7.72355 117.089 7.74324 117.177C7.76293 117.265 7.79995 117.346 7.85214 117.415C7.90433 117.484 7.97062 117.54 8.04727 117.579C8.12392 117.618 8.20942 117.639 8.29873 117.643C8.38804 117.646 8.4795 117.63 8.56772 117.597L15.3356 115.113C15.4646 115.068 15.5829 114.986 15.6767 114.878C15.7704 114.77 15.8356 114.64 15.8643 114.503C15.893 114.367 15.884 114.23 15.8385 114.11C15.793 113.989 15.7129 113.889 15.6077 113.822Z" fill="#EFF4F9"/>
<path fill-rule="evenodd" clip-rule="evenodd" d="M14.7745 116.829C14.6764 116.766 14.56 116.733 14.4373 116.736C14.3147 116.738 14.1905 116.775 14.0779 116.843L10.7415 118.781C10.5744 118.879 10.4428 119.036 10.3756 119.22C10.3084 119.403 10.3111 119.597 10.3831 119.759C10.4552 119.921 10.5906 120.038 10.7598 120.084C10.9289 120.13 11.1178 120.101 11.285 120.004L14.6213 118.065C14.733 118.002 14.8305 117.912 14.904 117.803C14.9776 117.694 15.0246 117.571 15.0402 117.445C15.0557 117.32 15.0393 117.197 14.9926 117.089C14.946 116.981 14.8708 116.891 14.7745 116.829Z" fill="#EFF4F9"/>
<path fill-rule="evenodd" clip-rule="evenodd" d="M45.9171 68.4058C45.779 68.3088 45.6025 68.2769 45.4248 68.3172L35.6866 70.2987C35.5956 70.3157 35.5065 70.3509 35.4243 70.4025C35.3421 70.4541 35.2683 70.521 35.2076 70.5993C35.1469 70.6775 35.1003 70.7654 35.0706 70.8581C35.0408 70.9507 35.0285 71.0462 35.0343 71.1389C35.0401 71.2316 35.064 71.3196 35.1045 71.3979C35.145 71.4762 35.2013 71.5432 35.2702 71.595C35.339 71.6467 35.4189 71.6824 35.5055 71.6996C35.592 71.7167 35.6835 71.7149 35.7743 71.6948L45.5084 69.7101C45.647 69.6851 45.7805 69.6179 45.8914 69.5169C46.0024 69.416 46.0856 69.2862 46.1299 69.1449C46.1742 69.0035 46.1777 68.857 46.1398 68.725C46.1019 68.5929 46.024 68.482 45.9171 68.4058Z" fill="#EFF4F9"/>
<path fill-rule="evenodd" clip-rule="evenodd" d="M43.6307 71.3513C43.5578 71.2918 43.4711 71.2511 43.3765 71.2325C43.2819 71.2139 43.1819 71.2175 43.0831 71.2433L32.5884 73.8213C32.4987 73.8432 32.4118 73.8827 32.3326 73.9377C32.2533 73.9928 32.1832 74.0622 32.1264 74.142C32.0695 74.2217 32.0269 74.3105 32.0011 74.4029C31.9754 74.4953 31.9668 74.5897 31.976 74.6807C31.9853 74.7716 32.0123 74.8571 32.0551 74.9327C32.0979 75.0084 32.1559 75.0725 32.2258 75.1213C32.2957 75.1701 32.3761 75.2027 32.4625 75.2173C32.5488 75.2319 32.6393 75.2281 32.729 75.2062L43.2237 72.6283C43.356 72.5982 43.4821 72.53 43.5868 72.4314C43.6915 72.3328 43.7703 72.2081 43.8135 72.0728C43.8566 71.9375 43.8623 71.7973 43.8298 71.6692C43.7974 71.5411 43.7281 71.4307 43.6307 71.3513Z" fill="#EFF4F9"/>
<path fill-rule="evenodd" clip-rule="evenodd" d="M41.0833 74.6837C40.9477 74.5828 40.7721 74.5466 40.5939 74.5827L31.992 76.138C31.8979 76.1479 31.8041 76.178 31.7167 76.2259C31.6292 76.2738 31.5499 76.3387 31.4836 76.4166C31.4173 76.4946 31.3656 76.5837 31.3314 76.6786C31.2973 76.7736 31.2814 76.8724 31.2851 76.9687C31.2888 77.065 31.3119 77.1566 31.3528 77.2382C31.3937 77.3198 31.4516 77.3894 31.5229 77.4427C31.5942 77.4961 31.6772 77.5323 31.7671 77.5485C31.857 77.5648 31.9517 77.5611 32.0452 77.5376L40.6475 75.9818C40.7862 75.9599 40.9208 75.8953 41.0335 75.7967C41.1463 75.6981 41.2318 75.5702 41.279 75.4295C41.3263 75.2889 41.333 75.1421 41.2981 75.0088C41.2633 74.8756 41.188 74.7627 41.0833 74.6837Z" fill="#EFF4F9"/>
<path fill-rule="evenodd" clip-rule="evenodd" d="M48.273 121.192C48.152 121.11 48.0022 121.077 47.8479 121.098L41.4867 121.902C41.3048 121.925 41.1296 122.022 40.9996 122.171C40.8696 122.319 40.7955 122.508 40.7935 122.696C40.7916 122.883 40.8618 123.054 40.9891 123.17C41.1163 123.287 41.29 123.339 41.4719 123.316L47.8335 122.512C47.9769 122.494 48.1174 122.431 48.2355 122.331C48.3535 122.231 48.4431 122.099 48.4915 121.953C48.54 121.808 48.5448 121.656 48.5055 121.52C48.4662 121.383 48.3853 121.268 48.273 121.192Z" fill="#EFF4F9"/>
<path fill-rule="evenodd" clip-rule="evenodd" d="M47.5778 123.639C47.4396 123.542 47.2631 123.51 47.0854 123.55L38.4571 125.451C38.3662 125.47 38.2773 125.507 38.1957 125.559C38.1141 125.612 38.0412 125.68 37.9816 125.76C37.922 125.839 37.8766 125.927 37.8483 126.02C37.8199 126.113 37.8091 126.209 37.8164 126.301C37.8237 126.394 37.8491 126.481 37.891 126.559C37.9328 126.636 37.9905 126.702 38.0604 126.752C38.1303 126.803 38.2111 126.837 38.2982 126.852C38.3852 126.868 38.4768 126.864 38.5674 126.843L47.1958 124.942C47.3326 124.912 47.4632 124.842 47.5707 124.739C47.6782 124.637 47.7576 124.507 47.7988 124.367C47.8399 124.226 47.8408 124.082 47.8015 123.952C47.7622 123.822 47.684 123.714 47.5778 123.639Z" fill="#EFF4F9"/>
<path fill-rule="evenodd" clip-rule="evenodd" d="M46.3761 126.697C46.2334 126.61 46.0563 126.588 45.8814 126.636L36.5081 129.135C36.4187 129.159 36.3323 129.201 36.2539 129.257C36.1755 129.314 36.1068 129.385 36.0514 129.466C35.9397 129.629 35.8896 129.824 35.9122 130.007C35.9349 130.189 36.0283 130.346 36.1721 130.441C36.3159 130.536 36.4983 130.562 36.679 130.514L46.0482 128.012C46.1851 127.977 46.3142 127.901 46.4185 127.794C46.5227 127.686 46.5975 127.553 46.6329 127.411C46.6683 127.269 46.6627 127.125 46.6169 126.998C46.5711 126.87 46.4872 126.765 46.3761 126.697Z" fill="#EFF4F9"/>
<path fill-rule="evenodd" clip-rule="evenodd" d="M45.1947 129.77C45.0489 129.684 44.8689 129.666 44.6927 129.719L35.7561 132.212C35.6648 132.235 35.5765 132.276 35.4963 132.333C35.416 132.39 35.3456 132.462 35.2891 132.544C35.2326 132.626 35.1912 132.718 35.1674 132.812C35.1436 132.907 35.1378 133.003 35.1505 133.095C35.1631 133.187 35.194 133.272 35.2411 133.347C35.2883 133.422 35.3508 133.484 35.4249 133.529C35.4991 133.575 35.5834 133.603 35.6728 133.612C35.7622 133.621 35.855 133.611 35.9455 133.583L44.8784 131.086C45.0152 131.05 45.1436 130.973 45.247 130.865C45.3505 130.757 45.4241 130.623 45.4582 130.481C45.4924 130.339 45.4856 130.195 45.4386 130.068C45.3915 129.941 45.3066 129.837 45.1947 129.77Z" fill="#EFF4F9"/>
<path fill-rule="evenodd" clip-rule="evenodd" d="M44.7587 132.084C44.6791 132.033 44.5871 132.002 44.4892 131.993C44.3913 131.985 44.2897 131.999 44.1919 132.035L35.8979 135.015C35.8097 135.046 35.7262 135.095 35.6519 135.158C35.5777 135.221 35.5142 135.297 35.4652 135.381C35.4162 135.466 35.3826 135.558 35.3662 135.651C35.3499 135.745 35.3511 135.839 35.3699 135.927C35.3888 136.015 35.425 136.096 35.4761 136.165C35.5273 136.234 35.5924 136.291 35.6681 136.331C35.7438 136.371 35.8284 136.394 35.9171 136.398C36.0058 136.403 36.0969 136.389 36.1851 136.357L44.4791 133.378C44.6087 133.333 44.728 133.252 44.8228 133.144C44.9175 133.036 44.9837 132.906 45.0132 132.77C45.0427 132.633 45.0345 132.496 44.9894 132.374C44.9442 132.252 44.8641 132.152 44.7587 132.084Z" fill="#EFF4F9"/>
<path fill-rule="evenodd" clip-rule="evenodd" d="M43.9329 135.259C43.8527 135.209 43.7604 135.179 43.6626 135.172C43.5648 135.165 43.4638 135.18 43.3667 135.217L36.5947 137.698C36.5061 137.729 36.4221 137.778 36.3476 137.842C36.2731 137.905 36.2097 137.981 36.1608 138.066C36.1119 138.152 36.0785 138.244 36.0627 138.338C36.0468 138.432 36.0488 138.526 36.0685 138.614C36.0882 138.702 36.1252 138.783 36.1774 138.852C36.2296 138.921 36.2958 138.977 36.3725 139.016C36.4491 139.055 36.5346 139.076 36.6239 139.08C36.7133 139.083 36.8047 139.067 36.8929 139.034L43.6609 136.55C43.7898 136.505 43.9081 136.423 44.0019 136.315C44.0956 136.207 44.1608 136.077 44.1895 135.94C44.2182 135.804 44.2092 135.667 44.1637 135.547C44.1182 135.426 44.0381 135.326 43.9329 135.259Z" fill="#EFF4F9"/>
<path fill-rule="evenodd" clip-rule="evenodd" d="M43.0997 138.266C43.0016 138.203 42.8852 138.17 42.7626 138.173C42.6399 138.175 42.5157 138.212 42.4031 138.28L39.0667 140.218C38.984 140.267 38.909 140.33 38.8461 140.405C38.7833 140.481 38.7338 140.566 38.7005 140.657C38.6333 140.84 38.636 141.034 38.7081 141.196C38.7801 141.358 38.9158 141.475 39.085 141.521C39.2542 141.567 39.443 141.538 39.6102 141.441L42.9465 139.502C43.0582 139.439 43.1557 139.349 43.2292 139.24C43.3028 139.131 43.3498 139.008 43.3654 138.882C43.381 138.757 43.3645 138.634 43.3179 138.526C43.2712 138.418 43.196 138.328 43.0997 138.266Z" fill="#EFF4F9"/>
<path fill-rule="evenodd" clip-rule="evenodd" d="M122.741 166.743C120.03 166.535 117.221 167.124 114.812 168.348C111.959 169.797 109.318 172.037 107.691 174.875C106.058 177.724 105.272 181.186 105.649 184.472C106.1 188.4 107.742 192.529 110.754 195.305C113.992 198.29 118.654 200.235 123.141 199.927C127.696 199.615 132.061 196.983 134.924 193.582C137.352 190.698 138.424 186.777 138.447 183.138C138.462 179.022 137.521 174.302 134.469 171.141C131.432 167.994 126.763 167.056 122.741 166.747V166.743ZM122.571 168.906C126.365 169.197 130.503 170.161 132.895 172.64C135.331 175.164 136.282 179.36 136.269 183.126C136.248 186.341 135.253 189.819 133.257 192.189C130.748 195.169 126.779 197.504 122.988 197.764C119.252 198.02 115.042 196.306 112.234 193.717C109.735 191.414 108.212 187.724 107.81 184.226C107.492 181.459 108.179 178.39 109.58 175.946C110.944 173.566 113.275 171.56 115.799 170.278C117.844 169.239 120.296 168.732 122.571 168.906Z" fill="#EFF4F9"/>
<path fill-rule="evenodd" clip-rule="evenodd" d="M124.077 153.057C115.961 152.501 107.388 156.056 101.48 161.498C96.0372 166.513 92.9959 174.086 92.1683 181.288C91.484 187.243 92.9183 193.59 95.8905 198.772C98.8384 203.911 103.672 208.018 108.899 210.671C113.274 212.892 118.408 213.964 123.32 213.588C130.79 213.016 139.342 211.239 144.777 205.612C150.25 199.946 152.027 191.293 152 183.701C151.959 177.041 149.977 169.859 145.598 164.66C140.363 158.447 132.314 153.626 124.077 153.061V153.057ZM123.928 155.216C131.403 155.729 139.046 160.256 143.926 166.049C147.874 170.735 149.784 177.474 149.822 183.71C149.848 190.95 148.065 199.08 143.207 204.11C138.418 209.068 130.393 210.874 123.15 211.429C118.674 211.772 113.901 210.777 109.89 208.741C104.993 206.255 100.468 202.377 97.7835 197.696C95.0436 192.92 93.7088 186.97 94.3335 181.534C95.1116 174.763 98.0296 167.633 102.96 163.09C108.437 158.044 116.564 154.712 123.928 155.216Z" fill="#EFF4F9"/>
<path fill-rule="evenodd" clip-rule="evenodd" d="M109.439 156.981L107.559 158.078L114.638 170.134L116.518 169.038L109.439 156.981Z" fill="#EFF4F9"/>
<path fill-rule="evenodd" clip-rule="evenodd" d="M135.907 157.608L128.42 168.851L130.232 170.049L137.719 158.806L135.907 157.608Z" fill="#EFF4F9"/>
<path fill-rule="evenodd" clip-rule="evenodd" d="M145.917 167.437L135.027 173.94L136.15 175.798L147.04 169.296L145.917 167.437Z" fill="#EFF4F9"/>
<path fill-rule="evenodd" clip-rule="evenodd" d="M136.554 188.701L135.439 190.563L148.235 198.149L149.349 196.287L136.554 188.701Z" fill="#EFF4F9"/>
<path fill-rule="evenodd" clip-rule="evenodd" d="M131.577 195.635L129.526 196.367L134.427 209.913L136.477 209.181L131.577 195.635Z" fill="#EFF4F9"/>
<path fill-rule="evenodd" clip-rule="evenodd" d="M113.412 196.405L106.606 208.055L108.486 209.143L115.293 197.493L113.412 196.405Z" fill="#EFF4F9"/>
<path fill-rule="evenodd" clip-rule="evenodd" d="M108.376 189.365L96.2606 196.138L97.324 198.031L109.439 191.258L108.376 189.365Z" fill="#EFF4F9"/>
<path fill-rule="evenodd" clip-rule="evenodd" d="M97.3666 168.043L96.3286 169.948L107.627 176.043L108.665 174.139L97.3666 168.043Z" fill="#EFF4F9"/>
<path fill-rule="evenodd" clip-rule="evenodd" d="M99.0638 171.882C98.9402 171.878 98.8187 171.915 98.7193 171.989L94.1591 175.24C94.0417 175.324 93.9628 175.451 93.9396 175.593C93.9165 175.735 93.951 175.881 94.0356 175.998C94.1203 176.114 94.248 176.193 94.3908 176.216C94.5336 176.239 94.6798 176.205 94.7971 176.12L99.3574 172.869C99.4515 172.804 99.5226 172.711 99.5606 172.604C99.5986 172.496 99.6015 172.38 99.569 172.27C99.5365 172.161 99.4702 172.065 99.3795 171.995C99.2888 171.925 99.1783 171.886 99.0638 171.882Z" fill="#EFF4F9"/>
<path fill-rule="evenodd" clip-rule="evenodd" d="M99.7998 173.575C99.6577 173.573 99.5203 173.626 99.4169 173.723L93.3593 179.277C93.3065 179.325 93.2638 179.383 93.2337 179.448C93.2035 179.513 93.1864 179.583 93.1835 179.654C93.1805 179.726 93.1917 179.797 93.2164 179.864C93.2411 179.931 93.2788 179.993 93.3274 180.045C93.376 180.098 93.4346 180.14 93.4997 180.17C93.5648 180.2 93.6352 180.217 93.7069 180.22C93.7786 180.223 93.8502 180.212 93.9175 180.187C93.9849 180.163 94.0467 180.125 94.0995 180.077L100.157 174.523C100.24 174.45 100.298 174.354 100.325 174.248C100.352 174.141 100.345 174.029 100.307 173.926C100.268 173.823 100.199 173.735 100.108 173.672C100.018 173.609 99.9101 173.576 99.7998 173.575Z" fill="#EFF4F9"/>
<path fill-rule="evenodd" clip-rule="evenodd" d="M100.642 175.946C100.52 175.955 100.405 176.003 100.315 176.085L92.4873 182.926C92.4304 182.972 92.3834 183.028 92.349 183.093C92.3146 183.157 92.2936 183.228 92.2872 183.3C92.2808 183.373 92.2892 183.446 92.3119 183.515C92.3345 183.584 92.3709 183.648 92.419 183.703C92.467 183.758 92.5257 183.803 92.5915 183.835C92.6573 183.866 92.7289 183.885 92.802 183.889C92.8751 183.892 92.9482 183.881 93.0169 183.856C93.0856 183.831 93.1486 183.793 93.202 183.743L101.033 176.902C101.122 176.829 101.185 176.729 101.213 176.617C101.241 176.505 101.233 176.388 101.189 176.281C101.146 176.175 101.069 176.085 100.971 176.024C100.872 175.964 100.757 175.937 100.642 175.946Z" fill="#EFF4F9"/>
<path fill-rule="evenodd" clip-rule="evenodd" d="M101.097 178.588C100.956 178.584 100.819 178.635 100.714 178.73L93.0233 185.639C92.9162 185.736 92.852 185.871 92.8448 186.014C92.8376 186.158 92.8881 186.299 92.9851 186.405C93.0821 186.512 93.2178 186.576 93.3621 186.583C93.5065 186.59 93.6478 186.54 93.755 186.443L101.446 179.535C101.528 179.463 101.587 179.367 101.614 179.262C101.641 179.156 101.635 179.045 101.597 178.942C101.56 178.84 101.492 178.751 101.403 178.688C101.313 178.624 101.207 178.59 101.097 178.588Z" fill="#EFF4F9"/>
<path fill-rule="evenodd" clip-rule="evenodd" d="M101.871 181.229C101.75 181.236 101.635 181.284 101.544 181.364L93.2402 188.475C93.1844 188.521 93.1384 188.578 93.1048 188.641C93.0712 188.705 93.0508 188.775 93.0447 188.847C93.0386 188.919 93.0469 188.991 93.0692 189.06C93.0915 189.128 93.1274 189.192 93.1746 189.246C93.2218 189.301 93.2796 189.346 93.3444 189.378C93.4092 189.41 93.4798 189.429 93.552 189.434C93.6243 189.438 93.6968 189.429 93.7652 189.405C93.8336 189.382 93.8967 189.345 93.9506 189.297L102.254 182.185C102.342 182.112 102.405 182.013 102.433 181.902C102.461 181.791 102.453 181.675 102.411 181.569C102.369 181.463 102.294 181.372 102.197 181.311C102.1 181.25 101.986 181.222 101.871 181.229Z" fill="#EFF4F9"/>
<path fill-rule="evenodd" clip-rule="evenodd" d="M102.824 184.277C102.702 184.283 102.585 184.331 102.493 184.412L94.1208 191.591C94.0114 191.685 93.9441 191.819 93.9337 191.963C93.9234 192.106 93.9708 192.248 94.0656 192.357C94.1603 192.466 94.2947 192.533 94.439 192.543C94.5834 192.554 94.726 192.507 94.8354 192.412L103.207 185.233C103.295 185.16 103.358 185.06 103.386 184.95C103.414 184.839 103.406 184.722 103.364 184.616C103.321 184.51 103.246 184.42 103.15 184.359C103.053 184.298 102.939 184.27 102.824 184.277Z" fill="#EFF4F9"/>
<path fill-rule="evenodd" clip-rule="evenodd" d="M103.445 187.664C103.323 187.669 103.206 187.716 103.114 187.796L95.1503 194.433C95.0953 194.479 95.0498 194.535 95.0165 194.598C94.9832 194.661 94.9627 194.73 94.9562 194.801C94.9497 194.872 94.9573 194.943 94.9786 195.012C94.9998 195.08 95.0343 195.143 95.0802 195.197C95.126 195.252 95.1822 195.298 95.2456 195.331C95.3089 195.364 95.3783 195.384 95.4496 195.391C95.5209 195.397 95.5927 195.39 95.6611 195.368C95.7295 195.347 95.793 195.313 95.848 195.267L103.811 188.63C103.901 188.558 103.966 188.46 103.997 188.35C104.028 188.239 104.022 188.122 103.982 188.015C103.941 187.907 103.867 187.816 103.771 187.753C103.674 187.69 103.561 187.658 103.445 187.664Z" fill="#EFF4F9"/>
<path fill-rule="evenodd" clip-rule="evenodd" d="M176.266 80.9153C175.077 80.1469 174.06 79.6001 174.06 79.6001C173.86 79.4924 173.628 79.458 173.404 79.5027C173.18 79.5475 172.977 79.6685 172.829 79.8454C172.829 79.8454 172.237 80.5568 171.435 81.3463C170.633 82.1358 169.566 82.9774 169.022 83.1835C167.784 83.6525 166.142 83.39 164.42 83.1767C163.168 83.0218 160.199 82.0604 160.199 82.0604L160.209 82.0668C160.004 81.9955 159.781 81.9944 159.574 82.0635C159.366 82.1325 159.186 82.2679 159.062 82.4489C159.062 82.4489 155.181 88.2793 153.211 91.1486C149.589 96.4231 142.168 106.906 142.168 106.906C142.09 107.015 142.036 107.138 142.006 107.269C141.977 107.399 141.974 107.533 141.997 107.664C142.02 107.794 142.069 107.918 142.141 108.029C142.213 108.139 142.307 108.234 142.416 108.307L162.702 121.801C162.916 121.944 163.178 121.996 163.432 121.946C163.686 121.896 163.913 121.748 164.062 121.535C164.062 121.535 175.363 105.39 179.863 98.0415C181.183 95.8864 182.348 93.3059 182.284 90.584C182.225 88.037 181.117 85.614 179.652 83.7011C178.822 82.6178 177.463 81.6714 176.275 80.9025L176.266 80.9153ZM175.179 82.5942C176.295 83.316 177.572 84.2953 178.067 84.9415C179.332 86.5935 180.252 88.6885 180.299 90.6699C180.348 92.7742 179.388 95.0431 178.173 97.0268C173.926 103.963 163.724 118.551 162.987 119.606L144.355 107.216C145.073 106.201 151.374 97.3015 154.824 92.2778C156.68 89.5738 159.825 84.849 160.291 84.1485C160.974 84.3766 162.664 84.9714 164.146 85.155C165.777 85.3569 167.751 85.7862 169.695 85.0499C170.88 84.6006 171.928 83.6244 172.806 82.7597C173.348 82.2255 173.48 82.0475 173.75 81.7422C174.106 81.9408 174.409 82.0955 175.179 82.5942Z" fill="#EFF4F9"/>
<path fill-rule="evenodd" clip-rule="evenodd" d="M154.849 115.328L146.776 126.601L143.89 124.966L151.465 113.057L149.803 111.999L141.668 124.798C141.595 124.912 141.546 125.04 141.523 125.173C141.501 125.306 141.505 125.442 141.536 125.573C141.568 125.704 141.625 125.826 141.705 125.933C141.785 126.04 141.887 126.129 142.003 126.195L146.555 128.777C146.766 128.897 147.016 128.934 147.256 128.879C147.495 128.824 147.708 128.683 147.852 128.481L156.45 116.475L154.849 115.328Z" fill="#EFF4F9"/>
<path fill-rule="evenodd" clip-rule="evenodd" d="M178.199 97.251C178.199 97.251 177.753 97.5045 177.192 97.7416C176.631 97.9786 175.912 98.121 175.819 98.1082L175.813 98.1038C175.782 98.1074 175.434 97.8483 174.996 97.3617C174.777 97.118 174.537 96.8405 174.189 96.5973C173.838 96.3608 173.3 96.1463 172.732 96.2624C170.887 96.6375 169.802 98.0958 168.983 99.4743C168.163 100.853 167.486 102.257 166.66 103.052C165.889 103.794 165.334 104.436 164.884 104.556C164.199 104.738 163.315 104.624 163.066 104.378C162.748 104.065 162.62 103.054 162.802 102.228C162.935 101.628 163.394 101.039 164.033 100.344C164.671 99.6495 165.47 98.8804 165.936 97.769C166.258 97 166.815 95.9005 166.45 94.6352C166.034 93.1864 164.943 91.8497 163.365 91.4498C161.885 91.0745 160.692 91.9552 159.885 92.428C159.119 92.8762 158.705 93.5187 158.347 93.9777C157.989 94.4368 157.734 94.6761 157.525 94.7382C156.89 94.9268 155.933 94.7667 155.553 94.4245C155.498 94.3878 155.175 93.6639 155.056 92.9933C154.937 92.3227 154.912 91.7335 154.912 91.7335L152.935 91.8401C152.935 91.8401 152.96 92.548 153.105 93.3715C153.251 94.195 153.402 95.1676 154.214 95.9059L154.217 95.908C155.295 96.8861 156.792 97.0223 158.058 96.6459C158.97 96.3749 159.499 95.7033 159.899 95.191C160.298 94.6787 160.615 94.289 160.862 94.1443C161.712 93.6464 162.492 93.2885 162.854 93.3802C163.518 93.5483 164.324 94.4218 164.55 95.2129C164.646 95.5441 164.442 96.2371 164.116 97.0159C163.858 97.6327 163.267 98.2658 162.592 98.9991C161.918 99.7325 161.142 100.593 160.872 101.82C160.604 103.032 160.52 104.674 161.67 105.807C162.742 106.864 164.245 106.776 165.367 106.477C166.725 106.114 167.431 105.043 168.017 104.479C169.252 103.29 169.938 101.719 170.679 100.474C171.406 99.2498 172.077 98.4706 173.06 98.2486C173.155 98.3124 173.323 98.4828 173.522 98.7061C173.932 99.1605 174.45 99.9345 175.527 100.079C176.47 100.208 177.252 99.8621 177.934 99.574C178.617 99.2853 179.157 98.9752 179.157 98.9752L178.2 97.2488L178.199 97.251Z" fill="#EFF4F9"/>
<path fill-rule="evenodd" clip-rule="evenodd" d="M154.229 97.7375C154.118 97.6743 153.987 97.657 153.863 97.6891L150.493 98.5107C150.365 98.542 150.254 98.6229 150.184 98.7357C150.114 98.8486 150.091 98.9841 150.12 99.1124C150.15 99.2406 150.228 99.3513 150.34 99.4199C150.451 99.4885 150.585 99.5094 150.713 99.4781L154.083 98.6565C154.181 98.6341 154.27 98.5825 154.339 98.5086C154.408 98.4347 154.453 98.3419 154.468 98.2425C154.484 98.1431 154.47 98.0416 154.427 97.9515C154.384 97.8614 154.315 97.7868 154.229 97.7375Z" fill="#EFF4F9"/>
<path fill-rule="evenodd" clip-rule="evenodd" d="M153.781 99.395C153.67 99.3323 153.538 99.3161 153.413 99.3498L148.512 100.573C148.446 100.585 148.382 100.611 148.325 100.648C148.268 100.686 148.219 100.735 148.181 100.792C148.144 100.849 148.118 100.913 148.106 100.98C148.094 101.048 148.095 101.116 148.11 101.182C148.126 101.248 148.154 101.31 148.195 101.364C148.235 101.419 148.286 101.464 148.344 101.497C148.403 101.53 148.468 101.551 148.535 101.558C148.602 101.565 148.67 101.558 148.735 101.537L153.636 100.314C153.733 100.292 153.822 100.24 153.891 100.166C153.96 100.092 154.005 99.9996 154.021 99.9002C154.037 99.8008 154.022 99.6993 153.979 99.6092C153.936 99.5191 153.867 99.4443 153.781 99.395Z" fill="#EFF4F9"/>
<path fill-rule="evenodd" clip-rule="evenodd" d="M153.166 101.542C153.057 101.476 152.927 101.456 152.802 101.485L146.596 102.885C146.531 102.898 146.47 102.924 146.415 102.961C146.36 102.998 146.313 103.046 146.276 103.101C146.24 103.157 146.214 103.219 146.202 103.284C146.189 103.349 146.189 103.416 146.202 103.48C146.216 103.545 146.242 103.606 146.279 103.66C146.316 103.714 146.363 103.759 146.418 103.795C146.473 103.83 146.535 103.853 146.6 103.864C146.664 103.875 146.731 103.872 146.795 103.857L153.001 102.457C153.098 102.437 153.188 102.387 153.258 102.315C153.329 102.242 153.376 102.151 153.393 102.052C153.411 101.953 153.399 101.852 153.359 101.761C153.318 101.67 153.251 101.594 153.166 101.542Z" fill="#EFF4F9"/>
<path fill-rule="evenodd" clip-rule="evenodd" d="M152.426 103.304C152.317 103.238 152.187 103.218 152.062 103.247L144.567 104.91C144.503 104.924 144.442 104.95 144.388 104.987C144.334 105.025 144.288 105.072 144.252 105.128C144.216 105.183 144.191 105.244 144.179 105.309C144.166 105.373 144.167 105.439 144.18 105.503C144.193 105.567 144.218 105.628 144.255 105.682C144.292 105.735 144.338 105.781 144.393 105.816C144.447 105.851 144.508 105.875 144.572 105.886C144.636 105.898 144.702 105.896 144.766 105.882L152.261 104.219C152.358 104.198 152.448 104.149 152.518 104.077C152.588 104.004 152.635 103.913 152.653 103.814C152.671 103.715 152.659 103.614 152.619 103.523C152.578 103.432 152.511 103.356 152.426 103.304Z" fill="#EFF4F9"/>
<path fill-rule="evenodd" clip-rule="evenodd" d="M151.706 105.381C151.598 105.313 151.467 105.29 151.341 105.318L143.521 106.913C143.456 106.925 143.394 106.949 143.338 106.986C143.282 107.022 143.234 107.069 143.196 107.123C143.159 107.178 143.132 107.24 143.118 107.305C143.104 107.37 143.103 107.437 143.116 107.502C143.128 107.567 143.153 107.628 143.189 107.683C143.225 107.738 143.272 107.784 143.327 107.82C143.382 107.856 143.443 107.881 143.508 107.893C143.573 107.904 143.639 107.903 143.704 107.888L151.523 106.293C151.622 106.275 151.713 106.227 151.785 106.156C151.856 106.085 151.905 105.994 151.925 105.895C151.945 105.797 151.934 105.695 151.895 105.603C151.856 105.511 151.79 105.434 151.706 105.381Z" fill="#EFF4F9"/>
<path fill-rule="evenodd" clip-rule="evenodd" d="M151.338 107.092C151.226 107.031 151.095 107.017 150.971 107.052L145.571 108.467C145.503 108.478 145.438 108.503 145.38 108.541C145.322 108.579 145.272 108.629 145.234 108.687C145.196 108.745 145.17 108.81 145.158 108.879C145.146 108.947 145.149 109.017 145.165 109.083C145.182 109.15 145.212 109.213 145.254 109.267C145.296 109.321 145.348 109.366 145.409 109.398C145.469 109.43 145.536 109.449 145.604 109.454C145.673 109.459 145.742 109.449 145.807 109.426L151.207 108.011C151.304 107.987 151.391 107.934 151.458 107.859C151.526 107.784 151.569 107.691 151.583 107.592C151.598 107.493 151.582 107.392 151.538 107.303C151.494 107.214 151.425 107.14 151.338 107.092Z" fill="#EFF4F9"/>
<path fill-rule="evenodd" clip-rule="evenodd" d="M151.5 108.933C151.387 108.873 151.254 108.86 151.13 108.897L147.656 109.874C147.528 109.909 147.42 109.994 147.354 110.109C147.287 110.224 147.269 110.361 147.302 110.488C147.336 110.616 147.419 110.724 147.532 110.789C147.646 110.853 147.781 110.87 147.908 110.835L151.383 109.857C151.48 109.832 151.568 109.778 151.635 109.702C151.702 109.626 151.745 109.531 151.757 109.431C151.77 109.331 151.752 109.229 151.706 109.141C151.66 109.052 151.588 108.979 151.5 108.933Z" fill="#EFF4F9"/>
<path fill-rule="evenodd" clip-rule="evenodd" d="M117.949 27.6514C114.855 25.3855 110.671 25.4392 107.23 26.0007C103.723 26.5727 100.078 28.1424 97.5663 30.8921C94.3766 34.386 91.6863 39.3971 92.2957 44.3607L92.2917 44.3588C93.0079 50.1985 97.1068 55.966 102.453 58.3282C107.415 60.5203 113.794 59.5555 118.302 56.6039C122.488 53.8637 125.589 48.7728 125.786 43.7149C126.024 37.6184 122.784 31.1922 117.949 27.6514ZM116.603 29.5089C120.762 32.555 123.724 38.4695 123.521 43.6538C123.36 47.7915 120.588 52.3978 117.086 54.6904C113.245 57.2054 107.447 58.0227 103.383 56.2281C98.9081 54.2503 95.1445 48.9869 94.5395 44.0525C94.0577 40.1275 96.3496 35.5761 99.2178 32.4342C101.259 30.1994 104.464 28.7697 107.559 28.2651C110.712 27.7505 114.33 27.8494 116.601 29.5129L116.603 29.5089Z" fill="#EFF4F9"/>
<path fill-rule="evenodd" clip-rule="evenodd" d="M100.487 40.1278C100.325 40.0549 100.149 40.0216 99.9713 40.0305C99.7939 40.0394 99.6205 40.0903 99.465 40.1791C99.3096 40.2679 99.1765 40.3922 99.0766 40.5418C98.9767 40.6914 98.9127 40.8622 98.8898 41.0404C98.561 43.3051 99.2844 45.6085 100.411 47.4907C101.505 49.3187 103.13 51.3522 105.525 52.0609C109.153 53.1343 113.477 52.4626 116.375 50.1505C116.612 49.9612 116.767 49.6855 116.804 49.384C116.842 49.0824 116.759 48.7797 116.575 48.5425C116.391 48.3053 116.12 48.1532 115.822 48.1193C115.524 48.0854 115.223 48.1727 114.986 48.3619C112.839 50.0753 109.07 50.7184 106.188 49.8655C104.7 49.4254 103.303 47.8736 102.355 46.2884C101.436 44.7543 100.908 42.8724 101.13 41.3437C101.17 41.0961 101.129 40.8431 101.013 40.6235C100.896 40.4038 100.712 40.2296 100.487 40.1278Z" fill="#EFF4F9"/>
<path fill-rule="evenodd" clip-rule="evenodd" d="M117.054 39.0574C117.447 39.1903 117.779 39.5894 117.875 39.998C117.964 40.378 117.845 40.8466 117.584 41.1403C117.379 41.3699 117.031 41.4739 116.727 41.4664C116.193 41.4538 115.502 41.302 115.264 40.8203C115.043 40.3727 115.241 39.6979 115.601 39.3455C115.956 38.9969 116.589 38.8994 117.054 39.0574Z" fill="#EFF4F9"/>
<path fill-rule="evenodd" clip-rule="evenodd" d="M106.001 36.638C106.348 36.8658 106.867 36.8809 107.248 36.7043C107.602 36.5404 107.897 36.1578 107.968 35.7714C108.022 35.4686 107.89 35.1304 107.697 34.896C107.357 34.483 106.812 34.0325 106.286 34.1426C105.797 34.2442 105.388 34.8159 105.332 35.3165C105.277 35.8114 105.59 36.3694 106.001 36.638Z" fill="#EFF4F9"/>
<path fill-rule="evenodd" clip-rule="evenodd" d="M123.186 13.7179C122.912 13.5998 122.6 13.597 122.321 13.7105C122.041 13.8239 121.816 14.0442 121.695 14.323L118.776 20.7992C118.713 20.9367 118.678 21.0851 118.671 21.2357C118.665 21.3863 118.689 21.5363 118.74 21.6771C118.792 21.8178 118.87 21.9463 118.972 22.0556C119.073 22.1649 119.195 22.2527 119.33 22.3138C119.466 22.3749 119.612 22.4083 119.761 22.4119C119.91 22.4155 120.059 22.3893 120.199 22.3348C120.338 22.2804 120.466 22.1988 120.576 22.0946C120.685 21.9904 120.773 21.8656 120.834 21.7276L123.753 15.2515C123.819 15.1122 123.856 14.9614 123.863 14.8081C123.869 14.6549 123.846 14.5023 123.793 14.3593C123.74 14.2162 123.659 14.0858 123.555 13.9757C123.45 13.8657 123.325 13.7776 123.186 13.7179Z" fill="#EFF4F9"/>
<path fill-rule="evenodd" clip-rule="evenodd" d="M99.0618 63.398C98.7868 63.2808 98.4754 63.2794 98.1962 63.394C97.9171 63.5085 97.6928 63.7297 97.5727 64.009L94.9363 69.905C94.874 70.0428 94.8392 70.1912 94.8337 70.3418C94.8281 70.4924 94.8522 70.6421 94.9043 70.7826C94.9563 70.9231 95.0354 71.0514 95.1371 71.1603C95.2388 71.2691 95.3609 71.3565 95.4966 71.417C95.6324 71.4776 95.7789 71.5104 95.928 71.5134C96.077 71.5164 96.2256 71.4896 96.3651 71.4346C96.5046 71.3796 96.6324 71.2976 96.7411 71.193C96.8498 71.0884 96.9373 70.9635 96.9985 70.8254L99.635 64.9293C99.6998 64.7898 99.7364 64.6389 99.7426 64.4856C99.7488 64.3323 99.7244 64.1796 99.6709 64.0368C99.6174 63.894 99.5359 63.7639 99.4312 63.6543C99.3266 63.5446 99.2011 63.4571 99.0618 63.398Z" fill="#EFF4F9"/>
<path fill-rule="evenodd" clip-rule="evenodd" d="M137.218 54.7131C137.195 54.7007 137.171 54.6891 137.147 54.6784L130.775 51.8147C130.638 51.7442 130.489 51.7026 130.336 51.6927C130.182 51.6828 130.028 51.7047 129.882 51.757C129.736 51.8092 129.602 51.8906 129.488 51.9965C129.374 52.1024 129.282 52.2304 129.218 52.3727C129.154 52.515 129.12 52.6688 129.116 52.8243C129.113 52.9799 129.141 53.134 129.199 53.2774C129.256 53.4208 129.343 53.5503 129.452 53.6582C129.561 53.7661 129.692 53.8501 129.835 53.905L136.207 56.7687C136.475 56.8959 136.783 56.9108 137.065 56.8101C137.347 56.7093 137.579 56.5011 137.712 56.2304C137.846 55.9597 137.869 55.6484 137.776 55.3637C137.684 55.079 137.484 54.8437 137.22 54.7091L137.218 54.7131Z" fill="#EFF4F9"/>
<path fill-rule="evenodd" clip-rule="evenodd" d="M88.3573 30.994C88.3339 30.9816 88.3101 30.97 88.2859 30.9593L82.4846 28.3735C82.348 28.3037 82.1984 28.263 82.0449 28.2538C81.8914 28.2445 81.7373 28.267 81.5919 28.3198C81.4465 28.3727 81.313 28.4545 81.1993 28.5609C81.0856 28.6672 80.9943 28.7956 80.9309 28.9381C80.8675 29.0806 80.8334 29.2342 80.8305 29.3897C80.8277 29.5452 80.8562 29.6994 80.9144 29.8425C80.9726 29.9857 81.0592 30.1149 81.169 30.2224C81.2788 30.3299 81.4094 30.4133 81.5529 30.4677L87.3542 33.0534C87.6227 33.1794 87.9308 33.1929 88.2121 33.091C88.4933 32.9891 88.725 32.78 88.857 32.5089C88.9891 32.2378 89.0109 31.9264 88.9177 31.6422C88.8246 31.358 88.624 31.1236 88.3592 30.99L88.3573 30.994Z" fill="#EFF4F9"/>
<path fill-rule="evenodd" clip-rule="evenodd" d="M138.689 31.2066C138.545 31.1289 138.385 31.084 138.22 31.0754C138.056 31.0669 137.891 31.0947 137.738 31.157L131.167 33.7154C131.021 33.7647 130.886 33.843 130.77 33.946C130.655 34.049 130.561 34.1745 130.494 34.3146C130.427 34.4547 130.389 34.6065 130.382 34.7612C130.375 34.9158 130.399 35.07 130.452 35.2142C130.506 35.3584 130.588 35.4898 130.693 35.6004C130.799 35.7109 130.926 35.7983 131.067 35.8574C131.208 35.9164 131.359 35.9457 131.512 35.9438C131.665 35.9418 131.817 35.9086 131.958 35.846L138.527 33.2916C138.733 33.2149 138.914 33.0799 139.047 32.9027C139.18 32.7256 139.26 32.5139 139.277 32.2934C139.294 32.0729 139.248 31.8529 139.143 31.66C139.039 31.4671 138.881 31.3097 138.689 31.2066Z" fill="#EFF4F9"/>
<path fill-rule="evenodd" clip-rule="evenodd" d="M87.0834 49.5654C86.9382 49.488 86.7777 49.4439 86.613 49.436C86.4483 49.4281 86.2833 49.4568 86.1298 49.5198L80.1651 51.8601C80.0258 51.9147 79.8982 51.9963 79.7895 52.1003C79.6808 52.2044 79.5931 52.3288 79.5315 52.4665C79.4699 52.6041 79.4356 52.7523 79.4306 52.9025C79.4255 53.0528 79.4498 53.2021 79.502 53.3421C79.5542 53.4822 79.6333 53.6101 79.7349 53.7186C79.8364 53.8271 79.9583 53.914 80.0937 53.9744C80.2291 54.0348 80.3754 54.0674 80.524 54.0706C80.6727 54.0737 80.8209 54.0472 80.9602 53.9926L86.925 51.6523C87.1313 51.5754 87.312 51.44 87.4451 51.2624C87.5781 51.0849 87.6579 50.8727 87.6747 50.6519C87.6914 50.431 87.6445 50.2108 87.5396 50.0179C87.4346 49.8251 87.2761 49.6679 87.0834 49.5654Z" fill="#EFF4F9"/>
<path fill-rule="evenodd" clip-rule="evenodd" d="M99.9469 12.5654C99.7419 12.4732 99.5137 12.4452 99.2912 12.4851C99.0687 12.525 98.8622 12.6309 98.6982 12.7893C98.5341 12.9477 98.4199 13.1515 98.3702 13.3744C98.3206 13.5972 98.3377 13.8291 98.4194 14.0403L100.861 20.6446C100.913 20.7848 100.992 20.9128 101.093 21.0215C101.194 21.1303 101.316 21.2177 101.451 21.2785C101.586 21.3393 101.732 21.3722 101.881 21.3758C102.03 21.3793 102.178 21.3533 102.317 21.2991C102.457 21.2449 102.585 21.1635 102.694 21.0598C102.803 20.9561 102.89 20.8321 102.952 20.6947C103.014 20.5572 103.049 20.4091 103.055 20.2589C103.06 20.1086 103.036 19.9591 102.984 19.8189L100.543 13.2146C100.492 13.0711 100.413 12.9395 100.311 12.828C100.208 12.7165 100.085 12.6272 99.9469 12.5654Z" fill="#EFF4F9"/>
<path fill-rule="evenodd" clip-rule="evenodd" d="M117.435 64.4638C117.23 64.3725 117.002 64.3455 116.78 64.386C116.558 64.4265 116.352 64.5328 116.189 64.6913C116.025 64.8498 115.911 65.0533 115.862 65.2758C115.813 65.4984 115.83 65.7298 115.912 65.9407L118.151 71.943C118.199 72.0894 118.275 72.224 118.376 72.3391C118.477 72.4541 118.6 72.5473 118.737 72.6124C118.875 72.6776 119.025 72.7136 119.178 72.7184C119.331 72.7231 119.484 72.6964 119.627 72.64C119.77 72.5836 119.901 72.4988 120.012 72.3903C120.122 72.2819 120.21 72.1522 120.27 72.0091C120.33 71.8661 120.361 71.7126 120.36 71.558C120.36 71.4034 120.329 71.2507 120.269 71.1094L118.031 65.1131C117.98 64.9695 117.901 64.838 117.799 64.7265C117.697 64.615 117.573 64.5257 117.435 64.4638Z" fill="#EFF4F9"/>
<path fill-rule="evenodd" clip-rule="evenodd" d="M104.668 30.4867C104.569 30.4437 104.46 30.4303 104.353 30.4481L97.8412 31.4049C97.7673 31.4158 97.6961 31.4411 97.6316 31.4796C97.5671 31.5181 97.5105 31.5691 97.4652 31.6294C97.4198 31.6898 97.3866 31.7584 97.3673 31.8314C97.348 31.9044 97.3432 31.9802 97.3529 32.0547C97.3627 32.1292 97.3869 32.2008 97.4242 32.2655C97.4615 32.3302 97.5111 32.3866 97.5702 32.4317C97.6294 32.4767 97.6969 32.5093 97.7689 32.5278C97.8409 32.5463 97.9159 32.5503 97.9898 32.5394L104.5 31.5766C104.622 31.56 104.736 31.5034 104.825 31.4157C104.914 31.3279 104.972 31.2138 104.991 31.0904C105.01 30.9671 104.989 30.8414 104.93 30.7324C104.872 30.6234 104.78 30.5371 104.668 30.4867Z" fill="#EFF4F9"/>
<path fill-rule="evenodd" clip-rule="evenodd" d="M102.332 33.2883C102.218 33.2313 102.087 33.2154 101.962 33.2432L95.4791 34.5532C95.3312 34.5831 95.2004 34.671 95.1153 34.7974C95.0303 34.9238 94.9981 35.0784 95.0256 35.2274C95.0532 35.3764 95.1383 35.5075 95.2624 35.5917C95.3864 35.676 95.5391 35.7065 95.687 35.6767L102.17 34.3667C102.288 34.3455 102.397 34.2872 102.481 34.2002C102.565 34.1131 102.62 34.0018 102.638 33.8821C102.656 33.7625 102.636 33.6406 102.581 33.5341C102.526 33.4275 102.439 33.3411 102.332 33.2883Z" fill="#EFF4F9"/>
<path fill-rule="evenodd" clip-rule="evenodd" d="M100.156 36.3369C100.041 36.2824 99.9117 36.2688 99.7875 36.298L95.0324 37.3327C94.8849 37.3647 94.7553 37.4542 94.672 37.5819C94.5886 37.7096 94.5585 37.8649 94.5882 38.0135C94.6178 38.1622 94.7049 38.292 94.8302 38.3745C94.9555 38.457 95.1087 38.4855 95.2562 38.4536L100.011 37.419C100.129 37.3961 100.238 37.3362 100.321 37.2477C100.404 37.1591 100.457 37.0464 100.473 36.9262C100.489 36.8059 100.467 36.6842 100.41 36.5785C100.353 36.4727 100.264 36.3876 100.156 36.3369Z" fill="#EFF4F9"/>
<path fill-rule="evenodd" clip-rule="evenodd" d="M98.8042 38.79C98.6898 38.7355 98.5601 38.7216 98.4359 38.7508L93.6808 39.7855C93.5332 39.8174 93.4035 39.9072 93.3202 40.0349C93.2368 40.1626 93.2067 40.3179 93.2363 40.4665C93.266 40.6152 93.353 40.7452 93.4783 40.8278C93.6036 40.9103 93.757 40.9386 93.9045 40.9066L98.6596 39.872C98.7778 39.8492 98.8861 39.7894 98.9691 39.7008C99.0522 39.6123 99.1056 39.4997 99.1217 39.3793C99.1377 39.259 99.1156 39.1371 99.0585 39.0313C99.0014 38.9255 98.9125 38.8406 98.8042 38.79Z" fill="#EFF4F9"/>
<path fill-rule="evenodd" clip-rule="evenodd" d="M97.8329 41.4283C97.7185 41.3738 97.5887 41.3602 97.4645 41.3894L92.7094 42.4241C92.5619 42.456 92.4323 42.5456 92.349 42.6733C92.2657 42.801 92.2355 42.9563 92.2652 43.1049C92.2949 43.2535 92.3819 43.3833 92.5072 43.4659C92.6325 43.5484 92.7857 43.5769 92.9332 43.545L97.6884 42.5103C97.8064 42.4875 97.9147 42.4276 97.9977 42.3391C98.0806 42.2505 98.1341 42.1378 98.1501 42.0175C98.1662 41.8973 98.144 41.7756 98.0869 41.6698C98.0299 41.564 97.9412 41.479 97.8329 41.4283Z" fill="#EFF4F9"/>
<path fill-rule="evenodd" clip-rule="evenodd" d="M97.6333 43.5898C97.5189 43.5353 97.3892 43.5215 97.265 43.5507L92.9723 44.4715C92.8947 44.4818 92.8198 44.5083 92.7524 44.5492C92.685 44.5901 92.6265 44.6444 92.5807 44.7089C92.5348 44.7735 92.5024 44.8468 92.4858 44.9242C92.4691 45.0015 92.4684 45.0813 92.4838 45.1585C92.4992 45.2357 92.5302 45.3087 92.575 45.3728C92.6198 45.4369 92.6774 45.4906 92.7441 45.5309C92.8108 45.5711 92.8852 45.5969 92.9626 45.6065C93.0401 45.6161 93.1189 45.6093 93.194 45.5867L97.4866 44.6661C97.603 44.6422 97.7095 44.5819 97.791 44.4941C97.8726 44.4062 97.9252 44.295 97.9414 44.1762C97.9576 44.0574 97.9365 43.9369 97.8812 43.8318C97.8259 43.7267 97.7393 43.6418 97.6333 43.5898Z" fill="#EFF4F9"/>
<path fill-rule="evenodd" clip-rule="evenodd" d="M98.1036 45.594C97.9883 45.5379 97.8569 45.5236 97.7312 45.5532L93.4385 46.474C93.3653 46.4893 93.2957 46.519 93.2336 46.5615C93.1714 46.6039 93.1181 46.6581 93.0765 46.7212C93.0349 46.7842 93.006 46.8547 92.9913 46.9287C92.9766 47.0027 92.9764 47.0789 92.9909 47.1525C93.0053 47.2262 93.0341 47.296 93.0755 47.358C93.1169 47.4201 93.1702 47.4731 93.2322 47.5141C93.2942 47.555 93.3637 47.5831 93.4369 47.5967C93.51 47.6102 93.5852 47.6091 93.6583 47.5932L97.951 46.6724C98.0683 46.6497 98.176 46.5903 98.2588 46.5026C98.3415 46.4149 98.3951 46.3036 98.4119 46.1842C98.4288 46.0648 98.4081 45.9436 98.3526 45.8378C98.2972 45.732 98.2103 45.6461 98.1036 45.594Z" fill="#EFF4F9"/>
<path fill-rule="evenodd" clip-rule="evenodd" d="M98.7751 47.4468C98.6734 47.4093 98.5627 47.4023 98.4564 47.4268L94.1597 48.3456C94.0121 48.3776 93.8824 48.4673 93.799 48.5951C93.7157 48.7228 93.6856 48.878 93.7152 49.0267C93.7449 49.1753 93.8319 49.3054 93.9572 49.3879C94.0825 49.4705 94.2358 49.4987 94.3834 49.4668L98.6761 48.546C98.7977 48.5218 98.9087 48.4582 98.9921 48.3649C99.0754 48.2715 99.1266 48.1537 99.1378 48.0292C99.1489 47.9046 99.1196 47.7802 99.054 47.6752C98.9885 47.5701 98.8907 47.4895 98.7751 47.4468Z" fill="#EFF4F9"/>
<path fill-rule="evenodd" clip-rule="evenodd" d="M99.9734 49.4965C99.8581 49.4404 99.7268 49.4259 99.6012 49.4554L95.3085 50.3762C95.2309 50.3866 95.156 50.4131 95.0886 50.4539C95.0212 50.4948 94.9627 50.5492 94.9168 50.6137C94.8709 50.6782 94.8386 50.7516 94.8219 50.8289C94.8053 50.9063 94.8046 50.986 94.82 51.0632C94.8353 51.1405 94.8664 51.2134 94.9112 51.2775C94.956 51.3416 95.0136 51.3954 95.0803 51.4356C95.147 51.4758 95.2214 51.5016 95.2988 51.5112C95.3763 51.5208 95.455 51.5141 95.5302 51.4915L99.8269 50.5726C99.9432 50.5485 100.05 50.4882 100.131 50.4004C100.213 50.3125 100.265 50.2015 100.281 50.0827C100.297 49.964 100.276 49.8437 100.221 49.7387C100.166 49.6336 100.079 49.5485 99.9734 49.4965Z" fill="#EFF4F9"/>
<path fill-rule="evenodd" clip-rule="evenodd" d="M123.101 260.406C122.888 260.281 122.656 260.199 122.423 260.167C122.19 260.136 121.965 260.155 121.766 260.224C121.766 260.224 109.763 264.337 104.515 267.988C99.0873 271.765 94.2718 276.431 91.0187 282.023C88.5372 286.289 86.5171 293.171 85.0642 299.051C83.6114 304.931 82.7565 309.791 82.7565 309.791C82.7099 310.059 82.7705 310.352 82.9286 310.625C83.0868 310.898 83.3334 311.134 83.6288 311.295L94.7738 317.397C95.0357 317.54 95.3234 317.618 95.6002 317.62C95.877 317.623 96.1305 317.549 96.3282 317.41L104.66 311.509C104.687 311.49 104.713 311.47 104.738 311.449C104.738 311.449 113.178 304.225 116.342 299.367C119.632 294.319 121.94 288.593 123.206 282.575C124.659 275.665 123.935 261.644 123.935 261.644C123.923 261.412 123.839 261.174 123.692 260.955C123.544 260.736 123.34 260.546 123.101 260.406ZM121.13 263.446C121.238 266.52 121.526 276.268 120.403 281.607C119.185 287.397 116.958 292.91 113.802 297.754C111.025 302.017 102.586 309.398 102.562 309.42L94.9584 314.803L85.7678 309.773C85.8999 309.041 86.5419 305.394 87.8533 300.086C89.289 294.276 91.3509 287.436 93.6093 283.554C96.6872 278.263 101.293 273.773 106.538 270.124C110.406 267.432 118.292 264.485 121.13 263.446Z" fill="#EFF4F9"/>
<path fill-rule="evenodd" clip-rule="evenodd" d="M120.456 261.549L88.6279 313.04L91.1845 314.626L123.012 263.135L120.456 261.549Z" fill="#EFF4F9"/>
<path fill-rule="evenodd" clip-rule="evenodd" d="M159.589 287.657C159.351 287.512 159.087 287.422 158.825 287.397C158.825 287.397 147.651 286.287 141.927 286.567C136.079 286.854 130.169 287.478 124.821 289.206C121.456 290.292 116.526 293.556 116.526 293.556C116.39 293.644 116.282 293.759 116.207 293.894C116.131 294.03 116.09 294.184 116.086 294.347C116.082 294.51 116.115 294.679 116.182 294.844C116.25 295.01 116.351 295.169 116.481 295.312C116.61 295.455 116.764 295.58 116.936 295.678C117.107 295.777 117.291 295.848 117.478 295.887C117.665 295.926 117.851 295.933 118.025 295.907C118.2 295.881 118.359 295.822 118.494 295.735C118.494 295.735 123.657 292.473 126.259 291.633C131.271 290.014 136.943 289.398 142.678 289.117C146.932 288.908 153.515 289.547 156.305 289.793C154.836 292.012 148.592 301.544 144.042 306.693C142.195 308.783 140.373 310.84 138.101 312.274C132.827 315.6 126.506 317.825 119.998 319.583C115.946 320.678 107.693 321.492 106.571 321.606L100.469 313.665C100.357 313.506 100.215 313.361 100.05 313.241C99.8848 313.121 99.7008 313.028 99.5092 312.967C99.3176 312.906 99.1224 312.879 98.9355 312.887C98.7485 312.896 98.5736 312.94 98.4217 313.016C98.2698 313.092 98.144 313.2 98.0519 313.331C97.9598 313.463 97.9034 313.616 97.8861 313.782C97.8689 313.948 97.8912 314.122 97.9516 314.295C98.012 314.467 98.1092 314.635 98.2374 314.786L104.993 323.573C105.173 323.807 105.419 324.001 105.697 324.128C105.975 324.255 106.272 324.309 106.549 324.283C106.549 324.283 116.434 323.368 121.325 322.046C127.952 320.256 134.496 317.965 140.049 314.462C142.651 312.82 144.571 310.61 146.415 308.524C151.724 302.516 160.247 289.479 160.247 289.479C160.334 289.347 160.386 289.194 160.4 289.03C160.414 288.866 160.389 288.694 160.328 288.524C160.266 288.354 160.169 288.19 160.042 288.041C159.915 287.892 159.761 287.761 159.589 287.657Z" fill="#EFF4F9"/>
<path fill-rule="evenodd" clip-rule="evenodd" d="M137.861 298.792C137.838 298.777 137.814 298.763 137.791 298.749L123.291 290.473L122.159 292.544L135.984 300.437L138.779 312.639L141.568 312.659L138.619 299.795C138.576 299.602 138.485 299.411 138.354 299.237C138.223 299.063 138.055 298.909 137.863 298.788L137.861 298.792Z" fill="#EFF4F9"/>
<path fill-rule="evenodd" clip-rule="evenodd" d="M132.443 287.844L131.141 289.811L143.175 297.514L144.752 306.375L147.565 306.512L145.872 297.008C145.836 296.808 145.749 296.608 145.618 296.425C145.487 296.242 145.316 296.081 145.117 295.953L132.443 287.844Z" fill="#EFF4F9"/>
<path fill-rule="evenodd" clip-rule="evenodd" d="M110.314 272.204C110.218 272.151 110.114 272.116 110.011 272.101C109.907 272.085 109.806 272.09 109.714 272.115L96.6562 275.406C96.5688 275.423 96.4903 275.458 96.4254 275.508C96.3605 275.557 96.3105 275.62 96.2784 275.693C96.2463 275.766 96.2327 275.848 96.2386 275.933C96.2445 276.018 96.2695 276.105 96.3124 276.188C96.3553 276.271 96.4151 276.349 96.4882 276.418C96.5612 276.486 96.6461 276.543 96.7377 276.585C96.8292 276.628 96.9255 276.655 97.0209 276.664C97.1163 276.674 97.2089 276.666 97.2928 276.642L110.356 273.354C110.48 273.326 110.585 273.263 110.657 273.173C110.728 273.083 110.764 272.97 110.76 272.848C110.755 272.727 110.711 272.601 110.631 272.486C110.552 272.372 110.442 272.274 110.314 272.204Z" fill="#EFF4F9"/>
<path fill-rule="evenodd" clip-rule="evenodd" d="M107.512 276.856C107.418 276.8 107.316 276.762 107.212 276.743C107.108 276.723 107.006 276.724 106.912 276.745L94.3998 279.389C94.3147 279.407 94.2381 279.441 94.1744 279.489C94.1107 279.538 94.0611 279.599 94.0285 279.669C93.996 279.74 93.9811 279.819 93.9846 279.902C93.9881 279.984 94.01 280.069 94.049 280.151C94.0881 280.233 94.1435 280.311 94.2122 280.379C94.2808 280.448 94.3613 280.507 94.4491 280.552C94.5369 280.597 94.6302 280.628 94.7238 280.643C94.8174 280.658 94.9093 280.656 94.9944 280.638L107.507 277.994C107.632 277.969 107.739 277.909 107.814 277.823C107.889 277.736 107.929 277.627 107.929 277.506C107.93 277.386 107.891 277.261 107.817 277.146C107.743 277.03 107.637 276.93 107.512 276.856Z" fill="#EFF4F9"/>
<path fill-rule="evenodd" clip-rule="evenodd" d="M103.78 281.919C103.684 281.866 103.581 281.83 103.478 281.814C103.375 281.798 103.274 281.802 103.182 281.826L90.2304 284.931C90.0607 284.971 89.9309 285.076 89.8696 285.221C89.8083 285.366 89.8204 285.54 89.9035 285.704C89.9866 285.869 90.1338 286.01 90.3127 286.098C90.4915 286.186 90.6873 286.213 90.8571 286.172L103.812 283.062C103.936 283.034 104.039 282.971 104.111 282.882C104.182 282.794 104.219 282.682 104.215 282.561C104.212 282.44 104.169 282.315 104.092 282.201C104.014 282.087 103.906 281.989 103.78 281.919Z" fill="#EFF4F9"/>
<path fill-rule="evenodd" clip-rule="evenodd" d="M101.349 286.673C101.254 286.619 101.15 286.582 101.046 286.566C100.942 286.549 100.84 286.553 100.747 286.577L89.8106 289.198C89.7265 289.219 89.6514 289.254 89.5894 289.304C89.5275 289.354 89.4801 289.416 89.4497 289.488C89.4194 289.56 89.4068 289.64 89.4126 289.722C89.4185 289.805 89.4425 289.89 89.4837 289.972C89.5248 290.053 89.5822 290.13 89.6524 290.198C89.7226 290.265 89.8043 290.322 89.8929 290.366C89.9814 290.409 90.0751 290.438 90.1685 290.451C90.2619 290.463 90.3533 290.459 90.4374 290.439L101.376 287.814C101.5 287.786 101.603 287.723 101.675 287.635C101.746 287.546 101.783 287.435 101.78 287.315C101.777 287.195 101.735 287.07 101.658 286.957C101.582 286.843 101.475 286.744 101.349 286.673Z" fill="#EFF4F9"/>
<path fill-rule="evenodd" clip-rule="evenodd" d="M97.7769 292.071C97.6828 292.015 97.5803 291.976 97.4768 291.957C97.3732 291.938 97.2711 291.938 97.1774 291.959L87.3982 293.946C87.226 293.982 87.0918 294.081 87.0251 294.224C86.9584 294.366 86.9646 294.539 87.0424 294.705C87.1203 294.87 87.2634 295.015 87.4402 295.107C87.6171 295.199 87.8131 295.231 87.9854 295.196L97.7595 293.205C97.8855 293.182 97.993 293.124 98.0692 293.038C98.1453 292.952 98.1868 292.843 98.1886 292.723C98.1904 292.603 98.1527 292.478 98.0796 292.362C98.0066 292.246 97.9014 292.145 97.7769 292.071Z" fill="#EFF4F9"/>
<path fill-rule="evenodd" clip-rule="evenodd" d="M94.7416 297.558C94.5724 297.458 94.3794 297.413 94.2041 297.435L86.8751 298.225C86.785 298.233 86.7014 298.258 86.6294 298.298C86.5575 298.338 86.4985 298.393 86.4559 298.459C86.4133 298.525 86.388 298.601 86.3814 298.682C86.3748 298.764 86.3872 298.849 86.4177 298.933C86.4482 299.018 86.4962 299.099 86.559 299.173C86.6218 299.247 86.698 299.312 86.7833 299.364C86.8686 299.416 86.9612 299.455 87.0557 299.477C87.1502 299.499 87.2448 299.505 87.3338 299.493L94.6627 298.704C94.7994 298.691 94.9196 298.64 95.0076 298.557C95.0956 298.475 95.1472 298.364 95.1557 298.24C95.1643 298.117 95.1295 297.985 95.0556 297.863C94.9818 297.741 94.872 297.635 94.7416 297.558Z" fill="#EFF4F9"/>
</svg>
