<svg width="152" height="37" viewBox="0 0 152 37" fill="none" xmlns="http://www.w3.org/2000/svg">
<path d="M41.2744 32.5733C38.7544 32.5733 36.8224 32.1638 35.4784 31.345C34.1584 30.5034 33.4984 29.2751 33.4984 27.6601C33.4984 26.8413 33.7864 26.1703 34.3624 25.6471C34.9624 25.1012 35.7304 24.8282 36.6664 24.8282C37.2184 24.851 37.6384 24.9875 37.9264 25.2377C38.2144 25.4651 38.3584 25.6812 38.3584 25.8859C38.3584 25.9087 38.2384 25.9883 37.9984 26.1248C37.7584 26.2612 37.5424 26.466 37.3504 26.7389C37.1584 27.0119 37.0624 27.3872 37.0624 27.8648C37.0624 28.9339 37.3984 29.7641 38.0704 30.3555C38.7664 30.9242 39.8344 31.2085 41.2744 31.2085C42.2584 31.2085 43.1224 31.0265 43.8664 30.6626C44.6104 30.2987 45.1744 29.821 45.5584 29.2296C45.9664 28.6155 46.1704 27.9786 46.1704 27.3189C46.1704 26.5001 45.9184 25.7949 45.4144 25.2036C44.9344 24.6122 44.3344 24.1231 43.6144 23.7364C42.8944 23.327 41.9104 22.8607 40.6624 22.3376C39.2224 21.7234 38.0584 21.1661 37.1704 20.6657C36.2824 20.1653 35.5264 19.5057 34.9024 18.6868C34.2784 17.8452 33.9664 16.8103 33.9664 15.582C33.9664 13.6031 34.6744 12.1246 36.0904 11.1465C37.5304 10.1684 39.4144 9.67941 41.7424 9.67941C43.5664 9.67941 45.1504 10.0433 46.4944 10.7712C47.8624 11.4991 48.5464 12.5681 48.5464 13.9784C48.5464 14.7973 48.2464 15.4796 47.6464 16.0255C47.0704 16.5487 46.3144 16.8103 45.3784 16.8103C44.8264 16.7875 44.4064 16.6624 44.1184 16.435C43.8304 16.1848 43.6864 15.9573 43.6864 15.7526C43.6864 15.7298 43.8424 15.6502 44.1544 15.5138C44.4904 15.3773 44.7784 15.1726 45.0184 14.8996C45.2824 14.6267 45.4144 14.2514 45.4144 13.7737C45.4144 12.9321 45.0664 12.2725 44.3704 11.7948C43.6984 11.3171 42.8344 11.0783 41.7784 11.0783C40.3144 11.0783 39.1984 11.4081 38.4304 12.0677C37.6864 12.7046 37.3144 13.5007 37.3144 14.4561C37.3144 15.2522 37.5424 15.9232 37.9984 16.4691C38.4544 16.9922 39.1864 17.5154 40.1944 18.0386C41.0104 18.448 41.8984 18.8574 42.8584 19.2668C44.3944 19.9265 45.6064 20.5293 46.4944 21.0752C47.4064 21.6211 48.1624 22.3376 48.7624 23.2247C49.3864 24.1117 49.6984 25.2149 49.6984 26.5342C49.6984 27.6715 49.3144 28.7064 48.5464 29.639C47.8024 30.5489 46.7824 31.2654 45.4864 31.7885C44.2144 32.3117 42.8104 32.5733 41.2744 32.5733Z" fill="white"/>
<path d="M59.4994 32.3003C57.8674 32.3003 56.5714 31.834 55.6114 30.9014C54.6514 29.9688 54.1714 28.7406 54.1714 27.2166V20.9046C54.1714 20.3132 54.1474 19.881 54.0994 19.608C54.0754 19.3351 53.9314 19.0963 53.6674 18.8915C53.4034 18.6868 52.9594 18.5845 52.3354 18.5845C52.0474 18.5845 51.8314 18.5504 51.6874 18.4821C51.5434 18.3911 51.4714 18.1978 51.4714 17.9021C51.4714 17.7656 51.5194 17.6405 51.6154 17.5268C51.7114 17.3903 51.8554 17.3107 52.0474 17.288C53.5594 17.0832 54.8554 16.7875 55.9354 16.4009C56.2714 16.2871 56.5474 16.2189 56.7634 16.1961H56.8714C57.2554 16.1961 57.4474 16.4122 57.4474 16.8444V27.1825C57.4474 28.2288 57.7954 29.0363 58.4914 29.6049C59.1874 30.1508 59.9914 30.4238 60.9034 30.4238C62.0314 30.4238 62.9914 30.1622 63.7834 29.639C64.5754 29.1159 65.1034 28.5927 65.3674 28.0696V20.9046C65.3674 20.3132 65.3434 19.881 65.2954 19.608C65.2714 19.3351 65.1274 19.0963 64.8634 18.8915C64.5994 18.6868 64.1554 18.5845 63.5314 18.5845C63.2434 18.5845 63.0274 18.5504 62.8834 18.4821C62.7394 18.3911 62.6674 18.1978 62.6674 17.9021C62.6674 17.7656 62.7154 17.6405 62.8114 17.5268C62.9074 17.3903 63.0514 17.3107 63.2434 17.288C64.7554 17.0832 66.0514 16.7875 67.1314 16.4009C67.4674 16.2871 67.7434 16.2189 67.9594 16.1961H68.0674C68.4514 16.1961 68.6434 16.4122 68.6434 16.8444V28.6496C68.6434 29.9916 69.5914 30.6626 71.4874 30.6626C71.8954 30.6626 72.0994 30.8787 72.0994 31.3109C72.0994 31.6293 71.8954 31.8226 71.4874 31.8909L65.6914 32.2662C65.5234 32.2662 65.4274 32.2093 65.4034 32.0956C65.3794 32.0046 65.3674 31.834 65.3674 31.5838V29.6731H65.2954C64.5994 30.2873 64.0354 30.765 63.6034 31.1061C63.1714 31.4246 62.6074 31.6975 61.9114 31.925C61.2394 32.1752 60.4354 32.3003 59.4994 32.3003Z" fill="white"/>
<path d="M74.0687 31.9932C73.9007 31.9932 73.7567 31.925 73.6367 31.7885C73.5407 31.652 73.4927 31.4928 73.4927 31.3109C73.5167 31.0152 73.5887 30.8446 73.7087 30.7991C73.8287 30.7308 74.0447 30.6967 74.3567 30.6967C74.9807 30.6967 75.4247 30.5944 75.6887 30.3896C75.9527 30.1849 76.0967 29.9461 76.1207 29.6731C76.1687 29.4002 76.1927 28.968 76.1927 28.3766V20.5634C76.1927 19.972 76.1687 19.5398 76.1207 19.2669C76.0967 18.9939 75.9527 18.7551 75.6887 18.5504C75.4247 18.3456 74.9807 18.2433 74.3567 18.2433C74.0687 18.2433 73.8527 18.2092 73.7087 18.1409C73.5647 18.0499 73.4927 17.8566 73.4927 17.5609C73.4927 17.4244 73.5407 17.2993 73.6367 17.1856C73.7327 17.0491 73.8767 16.9695 74.0687 16.9468C75.6287 16.7193 76.9127 16.4236 77.9207 16.0597C78.3287 15.9459 78.6047 15.8777 78.7487 15.855H78.8567C79.2407 15.855 79.4327 16.071 79.4327 16.5032V18.6186H79.5407C80.3807 17.8225 81.2327 17.197 82.0967 16.742C82.9607 16.2644 83.7407 16.0255 84.4367 16.0255C85.2287 16.0255 85.8527 16.3099 86.3087 16.8785C86.7887 17.4244 87.0287 18.0613 87.0287 18.7892C87.0287 19.4261 86.8247 19.9947 86.4167 20.4951C86.0087 20.9955 85.4447 21.2458 84.7247 21.2458C84.3887 21.2458 84.0887 21.1775 83.8247 21.041C83.5847 20.9046 83.4527 20.7908 83.4287 20.6999C83.4527 20.6544 83.5727 20.5179 83.7887 20.2904C84.0047 20.0402 84.1127 19.7559 84.1127 19.4374C84.1127 19.028 83.9927 18.6982 83.7527 18.448C83.5367 18.1978 83.2367 18.0727 82.8527 18.0727C82.4447 18.0727 81.9287 18.266 81.3047 18.6527C80.6807 19.0166 80.0687 19.4829 79.4687 20.0516V28.3766C79.4687 28.968 79.4927 29.4002 79.5407 29.6731C79.5887 29.9461 79.7447 30.1849 80.0087 30.3896C80.2727 30.5944 80.7167 30.6967 81.3407 30.6967H81.5567C81.7487 30.6967 81.8927 30.7308 81.9887 30.7991C82.0847 30.8673 82.1447 31.0379 82.1687 31.3109C82.1687 31.4928 82.1207 31.652 82.0247 31.7885C81.9287 31.925 81.7847 31.9932 81.5927 31.9932C80.2007 31.925 78.9407 31.8909 77.8127 31.8909C76.7327 31.8909 75.4847 31.925 74.0687 31.9932Z" fill="white"/>
<path d="M129.981 32.3003C128.349 32.3003 126.897 31.9364 125.625 31.2085C124.353 30.4579 123.357 29.4798 122.637 28.2743C121.941 27.046 121.593 25.7495 121.593 24.3847C121.593 22.6787 122.013 21.2003 122.853 19.9492C123.693 18.6754 124.761 17.7087 126.057 17.0491C127.353 16.3667 128.661 16.0255 129.981 16.0255C131.613 16.0255 133.065 16.4008 134.337 17.1515C135.609 17.8793 136.593 18.8574 137.289 20.0857C138.009 21.2912 138.369 22.5764 138.369 23.9411C138.369 25.6471 137.937 27.137 137.073 28.4107C136.233 29.6618 135.165 30.6285 133.869 31.3109C132.573 31.9705 131.277 32.3003 129.981 32.3003ZM129.981 31.0379C131.613 31.0379 132.801 30.3783 133.545 29.059C134.313 27.7397 134.697 26.0338 134.697 23.9411C134.697 21.985 134.301 20.3928 133.509 19.1645C132.741 17.9135 131.565 17.2879 129.981 17.2879C128.325 17.2879 127.125 17.9362 126.381 19.2327C125.637 20.5292 125.265 22.2238 125.265 24.3165C125.265 26.2726 125.649 27.8876 126.417 29.1614C127.185 30.4124 128.373 31.0379 129.981 31.0379Z" fill="white"/>
<path d="M147.44 32.4709C146.264 32.4709 145.256 32.0615 144.416 31.2426C143.576 30.4238 143.156 29.2523 143.156 27.7284V17.6974L141.068 17.7656C140.924 17.7656 140.804 17.7087 140.708 17.595C140.612 17.4585 140.564 17.3107 140.564 17.1515C140.564 16.9468 140.6 16.7762 140.672 16.6397C140.768 16.4805 140.9 16.3895 141.068 16.3667C141.908 16.2075 142.556 15.9573 143.012 15.6161C143.492 15.2522 143.84 14.8655 144.056 14.4561C144.272 14.0239 144.536 13.3756 144.848 12.5113C144.968 12.2156 145.232 12.0677 145.64 12.0677C145.808 12.0677 145.976 12.1132 146.144 12.2042C146.312 12.2725 146.396 12.3862 146.396 12.5454L146.144 16.435L150.356 16.1961H150.428C150.74 16.1961 150.896 16.4122 150.896 16.8444C150.896 17.0946 150.848 17.3334 150.752 17.5609C150.68 17.7656 150.584 17.868 150.464 17.868L146.432 17.7656V28.1378C146.432 28.8884 146.588 29.5139 146.9 30.0143C147.236 30.5147 147.776 30.765 148.52 30.765C149.264 30.765 149.924 30.6399 150.5 30.3896C150.812 30.2759 151.004 30.219 151.076 30.219C151.244 30.219 151.376 30.2873 151.472 30.4238C151.568 30.5375 151.664 30.6967 151.76 30.9014C151.784 30.9469 151.796 31.0038 151.796 31.072C151.796 31.163 151.724 31.2654 151.58 31.3791C150.884 31.8113 150.224 32.0956 149.6 32.2321C149 32.3913 148.28 32.4709 147.44 32.4709Z" fill="white"/>
<path d="M89.2536 31.7885C89.3496 31.925 89.4936 31.9932 89.6856 31.9932C91.0536 31.925 92.3016 31.8909 93.4296 31.8909C95.0376 31.8909 96.5376 31.925 97.9296 31.9932C98.0976 31.9932 98.2296 31.925 98.3256 31.7885C98.4216 31.652 98.4696 31.4928 98.4696 31.3109C98.4456 31.0379 98.3856 30.8673 98.2896 30.7991C98.2176 30.7308 98.0736 30.6967 97.8576 30.6967H97.6416C96.8496 30.6967 96.2856 30.6398 95.9496 30.5261C95.6136 30.4124 95.3856 30.2077 95.2656 29.912C95.1456 29.5935 95.0856 29.0817 95.0856 28.3766V17.7656H98.9016C99.0696 17.7656 99.2136 17.6974 99.3336 17.5609C99.4536 17.4244 99.5136 17.2652 99.5136 17.0832C99.4896 16.8103 99.4176 16.6397 99.2976 16.5714C99.2016 16.4805 99.0456 16.435 98.8296 16.435H95.0856V14.3878C95.0856 13.296 95.1336 12.3407 95.2296 11.5218C95.3256 10.6802 95.6016 9.90687 96.0576 9.20174C96.5136 8.49662 97.2216 8.14405 98.1816 8.14405C98.292 8.14405 98.3988 8.15021 98.5019 8.16253C98.4881 7.77758 98.5155 7.39033 98.581 7.0198C98.5321 7.01868 98.483 7.01813 98.4336 7.01813C96.3216 7.06362 94.6776 7.82561 93.5016 9.3041C92.3496 10.7598 91.7736 12.6591 91.7736 15.002V16.435H89.6136C89.3016 16.435 89.0856 16.4691 88.9656 16.5373C88.8456 16.5828 88.7736 16.7648 88.7496 17.0832C88.7496 17.2652 88.7976 17.4244 88.8936 17.5609C89.0136 17.6974 89.1696 17.7656 89.3616 17.7656H91.7736V28.3766C91.7736 28.9908 91.7496 29.4343 91.7016 29.7073C91.6776 29.9575 91.5336 30.1849 91.2696 30.3896C91.0056 30.5944 90.5616 30.6967 89.9376 30.6967C89.6256 30.6967 89.4096 30.7308 89.2896 30.7991C89.1936 30.8446 89.1336 31.0152 89.1096 31.3109C89.1096 31.4928 89.1576 31.652 89.2536 31.7885Z" fill="white"/>
<path fill-rule="evenodd" clip-rule="evenodd" d="M108.498 7.96588C108.498 10.0596 106.707 11.7569 104.498 11.7569C102.289 11.7569 100.498 10.0596 100.498 7.96588C100.498 5.87216 102.289 4.17488 104.498 4.17488C106.707 4.17488 108.498 5.87216 108.498 7.96588ZM104.498 9.86138C105.603 9.86138 106.498 9.01273 106.498 7.96588C106.498 6.91902 105.603 6.07038 104.498 6.07038C103.394 6.07038 102.498 6.91902 102.498 7.96588C102.498 9.01273 103.394 9.86138 104.498 9.86138Z" fill="white"/>
<path fill-rule="evenodd" clip-rule="evenodd" d="M102.745 13.4059V31.6862C102.745 31.8909 102.805 32.0501 102.925 32.1638C103.045 32.3003 103.213 32.3685 103.429 32.3685C103.645 32.3685 103.825 32.2776 103.969 32.0956C104.113 31.9364 104.245 31.6975 104.365 31.3791C104.485 31.0606 104.593 30.8104 104.689 30.6285H104.869C106.429 31.743 108.277 32.3003 110.413 32.3003C111.853 32.3003 113.209 31.9364 114.481 31.2085C115.753 30.4806 116.761 29.4912 117.505 28.2401C118.273 26.9664 118.657 25.5675 118.657 24.0435C118.657 22.4968 118.321 21.1206 117.649 19.9151C117.001 18.6868 116.101 17.7315 114.949 17.0491C113.797 16.3667 112.513 16.0255 111.097 16.0255C110.233 16.0255 109.357 16.1961 108.469 16.5373C107.605 16.8558 106.825 17.3448 106.129 18.0044H106.021V13.4676C104.951 13.7331 103.804 13.7119 102.745 13.4059ZM113.617 29.2637C112.729 30.5147 111.553 31.1403 110.089 31.1403C109.321 31.1403 108.637 30.981 108.037 30.6626C107.461 30.3441 106.993 29.9688 106.633 29.5367C106.297 29.0817 106.093 28.6723 106.021 28.3084V19.301C107.053 18.2546 108.325 17.7315 109.837 17.7315C111.541 17.7315 112.825 18.3684 113.689 19.6422C114.553 20.8932 114.985 22.4058 114.985 24.18C114.985 26.2954 114.529 27.9899 113.617 29.2637Z" fill="white"/>
<path fill-rule="evenodd" clip-rule="evenodd" d="M9.63967 1.12255C10.1612 0.769483 10.8618 0.769483 11.3834 1.12255C17.8802 5.5207 20.8255 10.7933 21.0111 18.358C21.0968 21.9703 20.7299 25.2778 19.6133 28.1349C18.4681 30.9938 16.4315 33.6352 13.4332 35.8657C13.0549 36.1449 12.5585 36.2359 12.0976 36.1105C11.1793 35.8607 11.023 34.8291 10.5115 34.186C9.99974 34.8295 9.84439 35.8605 8.9254 36.1105C8.46452 36.2359 7.96817 36.1449 7.58987 35.8657C4.5915 33.6352 2.55499 30.9938 1.40971 28.1349C0.293102 25.2778 -0.0737632 21.9703 0.0119281 18.358C0.197553 10.7933 3.1428 5.5207 9.63967 1.12255ZM12.9984 32.6074C14.8746 30.9725 16.0052 29.1885 16.8041 27.1372C17.8092 24.6287 18.0991 21.8583 18.0119 18.4242C17.8672 12.5255 16.4108 8.68677 11.9984 5.12263V15.5479C13.7236 15.9687 14.4984 17.5725 14.4984 19.3389C14.4984 21.1053 13.7236 22.7091 11.9984 23.1299V31.6596C11.9984 31.6596 12.8001 32.3601 12.9984 32.6074ZM7.99835 32.6074C6.12206 30.9725 5.01787 29.1885 4.21893 27.1372C3.21389 24.6287 2.92391 21.8583 3.01112 18.4242C3.15557 12.5373 4.60442 8.68202 8.99835 5.12263V15.5479C7.27312 15.9687 6.49835 17.5725 6.49835 19.3389C6.49835 21.1053 7.27312 22.7091 8.99835 23.1299V31.6596C8.99835 31.6596 8.18923 32.3692 7.99835 32.6074ZM10.4984 17.4434C9.39378 17.4434 8.49835 18.292 8.49835 19.3389C8.49835 20.3858 9.39378 21.2344 10.4984 21.2344C11.6029 21.2344 12.4984 20.3858 12.4984 19.3389C12.4984 18.292 11.6029 17.4434 10.4984 17.4434Z" fill="white"/>
</svg>
