<svg width="183" height="71" viewBox="0 0 183 71" fill="none" xmlns="http://www.w3.org/2000/svg">
<path d="M1 8.55561C1 8.55561 48 -8.44451 56.5 8.55561C65 25.5557 98 -9.44439 115 8.55561C132 26.5556 182.5 8.55561 182.5 8.55561M1 34.5556C1 34.5556 48 17.5555 56.5 34.5556C65 51.5557 98 16.5556 115 34.5556C132 52.5556 182.5 34.5556 182.5 34.5556M1 61.5556C1 61.5556 48 44.5555 56.5 61.5556C65 78.5557 98 43.5556 115 61.5556C132 79.5556 182.5 61.5556 182.5 61.5556" stroke="#1188EE" stroke-width="2"/>
</svg>
