<svg width="60" height="73" viewBox="0 0 60 73" fill="none" xmlns="http://www.w3.org/2000/svg">
<path fill-rule="evenodd" clip-rule="evenodd" d="M13.8658 13.0005C13.689 12.9935 13.5128 13.0284 13.3481 13.1025C13.1833 13.1766 13.0335 13.2885 12.9078 13.4316C12.9078 13.4316 7.9558 19.0313 5.60354 22.2341C4.20153 24.1425 2.47627 26.1173 1.40143 28.7588C0.581023 30.7749 -0.052929 33.0841 0.0226971 35.5049C0.0943836 37.7831 0.897984 39.7831 1.64474 41.517C2.79364 44.1847 5.58833 48.0009 5.58833 48.0009C5.69648 48.1524 5.82954 48.2777 5.9799 48.3701C6.13027 48.4625 6.295 48.5202 6.46469 48.5394C6.63438 48.5586 6.8057 48.5391 6.96888 48.4822C7.13205 48.4254 7.28388 48.332 7.41569 48.2077C7.5475 48.0834 7.65671 47.9305 7.73709 47.7577C7.81747 47.5849 7.86744 47.3956 7.88415 47.2006C7.90085 47.0056 7.88397 46.8085 7.83446 46.621C7.78496 46.4334 7.70379 46.259 7.59561 46.1076C7.59561 46.1076 4.77046 42.0498 3.97136 40.1946C3.25905 38.5406 2.66007 36.8995 2.6129 35.4001C2.55876 33.6671 3.04156 31.7724 3.75339 30.023C4.57674 27.9995 6.09687 26.1831 7.58547 24.1566C9.43783 21.6347 12.6863 17.9501 13.7442 16.7406C14.6993 17.9817 17.2996 21.311 18.6458 23.6265C19.9564 25.8811 21.2409 28.0552 21.8037 30.3259C22.3425 32.4992 22.501 34.8688 22.1737 37.0429C21.9663 38.4155 21.3983 39.8176 20.6581 41.0742C20.341 41.6126 19.5057 42.61 18.7877 43.3754C18.0697 44.1404 17.4647 44.7153 17.4647 44.7153C17.3332 44.8403 17.2245 44.9941 17.1446 45.1675C17.0648 45.3409 17.0155 45.5307 16.9995 45.726C16.9835 45.9213 17.0011 46.1182 17.0513 46.3056C17.1016 46.4931 17.1834 46.6672 17.2923 46.8183C17.4011 46.9694 17.5348 47.0947 17.6857 47.1864C17.8365 47.2781 18.0016 47.3348 18.1716 47.3532C18.3415 47.3716 18.5129 47.3512 18.676 47.2935C18.8392 47.2357 18.9908 47.1415 19.1222 47.0164C19.1222 47.0164 19.7766 46.3859 20.5517 45.56C21.3267 44.7338 22.2151 43.7517 22.8073 42.7462C23.6995 41.2319 24.4426 39.48 24.7335 37.5556C25.1376 34.8711 24.9344 32.0849 24.2976 29.5162C23.5762 26.6059 22.0981 24.202 20.8051 21.9778C18.9381 18.7666 14.7833 13.5015 14.7833 13.5015C14.6671 13.3525 14.526 13.232 14.3683 13.1469C14.2107 13.0618 14.0398 13.0143 13.8658 13.0067V13.0005Z" fill="#1188EE"/>
<path fill-rule="evenodd" clip-rule="evenodd" d="M17.3887 0.504409C14.0501 -0.228446 10.9499 1.73866 8.48773 3.30071C6.18922 4.75896 3.9777 6.7895 2.51152 9.4817C0.869905 12.496 0.218628 16.0558 0.0226972 19.4028C-0.0928 21.3875 0.25277 23.8904 0.60055 26.009C0.948329 28.1276 1.32033 29.819 1.32033 29.819L3.8345 29.0908C3.8345 29.0908 3.48199 27.4767 3.1502 25.4556C2.8184 23.4342 2.53375 20.9609 2.6129 19.6008C2.79068 16.5638 3.39961 13.4751 4.71141 11.0663C5.85971 8.95809 7.72947 7.18929 9.74481 5.91059C12.156 4.38075 14.773 2.96761 16.9021 3.4347C18.8219 3.85616 20.7494 5.88543 22.0318 8.07773C23.3672 10.3607 23.9903 13.4285 23.9934 16.3385C23.9954 18.2808 22.8647 20.4819 22.3055 23.2535C21.9622 24.9554 21.4843 28.147 21.4843 28.147L24.0441 28.6539C24.0441 28.6539 24.5366 25.4026 24.8349 23.9234H24.8297C25.2551 21.8147 26.5918 19.4059 26.5886 16.3385C26.5849 12.959 25.9035 9.34779 24.1859 6.4116C22.6696 3.81931 20.3963 1.16449 17.3887 0.504409Z" fill="#1188EE"/>
<path fill-rule="evenodd" clip-rule="evenodd" d="M2.10094 41.2605C2.10094 41.2605 0.587642 50.9783 0.706997 56.3198C0.771969 59.275 0.438168 63.0113 2.1719 66.1709H2.16684C3.80765 69.162 6.61048 71.4838 9.68906 72.1189C12.597 72.7184 15.5827 71.5558 17.8702 69.777C20.4754 67.7514 22.3437 64.5629 23.3091 61.2366C24.3202 57.7528 23.5821 54.2709 23.4866 51.3505C23.3851 48.1992 22.7921 42.2745 22.7921 42.2745L20.2121 42.6124C20.2121 42.6124 20.8052 48.6166 20.8964 51.4615C21.004 54.7759 21.552 57.8592 20.8457 60.2928C20.0448 63.0524 18.4391 65.7316 16.4205 67.3014C14.5915 68.7236 12.1345 69.5923 10.1503 69.1831C7.92627 68.7247 5.59942 66.8274 4.36674 64.5805C3.25036 62.546 3.37226 59.4275 3.30228 56.2444C3.20052 51.6904 4.66074 41.7735 4.66074 41.7735L2.10094 41.2605Z" fill="#1188EE"/>
<path fill-rule="evenodd" clip-rule="evenodd" d="M13.7087 9.6856C13.3645 9.68409 13.0339 9.83953 12.7896 10.1182C12.5453 10.3968 12.4073 10.7756 12.406 11.1711L12.3502 14.5966C12.3468 14.7925 12.377 14.9869 12.4391 15.1693C12.5011 15.3518 12.5938 15.5185 12.7119 15.6598C12.83 15.801 12.9712 15.9144 13.1273 15.9929C13.2834 16.0715 13.4515 16.1139 13.6219 16.1178C13.7923 16.1217 13.9617 16.0868 14.1205 16.0155C14.2792 15.9442 14.4242 15.8377 14.5471 15.702C14.67 15.5663 14.7684 15.4041 14.8368 15.2247C14.9051 15.0452 14.9421 14.8522 14.9455 14.6563L15.0012 11.225C15.0067 11.0258 14.9773 10.827 14.9148 10.641C14.8524 10.455 14.7581 10.2856 14.6376 10.1422C14.5171 9.99878 14.3728 9.88433 14.2133 9.80612C14.0537 9.7279 13.8821 9.6863 13.7087 9.6856Z" fill="#1188EE"/>
<path fill-rule="evenodd" clip-rule="evenodd" d="M46.1546 13.0003C45.9771 13.0047 45.8023 13.0509 45.641 13.1361C45.4798 13.2213 45.3354 13.3436 45.2168 13.4955C45.2168 13.4955 41.062 18.7606 39.195 21.9718C37.9021 24.196 36.4239 26.5999 35.7026 29.5101C35.0657 32.0788 34.8625 34.865 35.2666 37.5495C35.5575 39.4739 36.3006 41.2254 37.1928 42.7398C37.785 43.7452 38.6734 44.7277 39.4485 45.5539C40.2235 46.3798 40.8779 47.0103 40.8779 47.0103C41.0093 47.1354 41.161 47.2296 41.3241 47.2874C41.4872 47.3451 41.6586 47.3651 41.8285 47.3467C41.9985 47.3284 42.1636 47.2717 42.3145 47.18C42.4653 47.0882 42.599 46.9633 42.7078 46.8122C42.8167 46.6611 42.8986 46.4867 42.9488 46.2992C42.999 46.1117 43.0167 45.9149 43.0006 45.7196C42.9846 45.5243 42.9353 45.3344 42.8555 45.161C42.7756 44.9876 42.6669 44.8343 42.5354 44.7092C42.5354 44.7092 41.9304 44.1344 41.2124 43.3693C40.4944 42.6039 39.6591 41.6065 39.342 41.0682C38.6018 39.8115 38.0339 38.4091 37.8264 37.0365C37.4992 34.8624 37.6576 32.4931 38.1964 30.3199C38.7592 28.0491 40.0437 25.875 41.3544 23.6204C42.7006 21.3049 45.3008 17.9756 46.256 16.7345C47.3139 17.944 50.5623 21.6286 52.4146 24.1505C53.9032 26.177 55.4234 27.9935 56.2467 30.0169C56.9586 31.7663 57.4414 33.6607 57.3872 35.3936C57.34 36.8931 56.7411 38.5346 56.0288 40.1885C55.2297 42.0437 52.4045 46.1015 52.4045 46.1015C52.2963 46.253 52.2152 46.4274 52.1657 46.6149C52.1162 46.8024 52.0993 46.9992 52.116 47.1942C52.1327 47.3892 52.1827 47.5788 52.2631 47.7516C52.3435 47.9244 52.4527 48.0773 52.5845 48.2016C52.7163 48.326 52.8681 48.4189 53.0313 48.4758C53.1944 48.5327 53.3658 48.5522 53.5354 48.533C53.7051 48.5138 53.8698 48.4564 54.0202 48.364C54.1706 48.2716 54.3036 48.146 54.4118 47.9945C54.4118 47.9945 57.2065 44.1783 58.3554 41.5105C59.1021 39.7767 59.9057 37.7771 59.9774 35.4989C60.053 33.0781 59.4191 30.7688 58.5987 28.7528C57.5238 26.1113 55.7986 24.1364 54.3966 22.2281C52.0443 19.0252 47.0923 13.4256 47.0923 13.4256C46.969 13.2853 46.8225 13.1748 46.6614 13.1008C46.5004 13.0267 46.328 12.9906 46.1546 12.9945V13.0003Z" fill="#1188EE"/>
<path fill-rule="evenodd" clip-rule="evenodd" d="M42.6114 0.504409C39.6039 1.16449 37.3304 3.81931 35.8141 6.4116C34.0965 9.34779 33.415 12.959 33.4114 16.3385C33.4083 19.4059 34.7449 21.8147 35.1703 23.9234H35.1651C35.4634 25.4026 35.9559 28.6539 35.9559 28.6539L38.5157 28.147C38.5157 28.147 38.0377 24.9554 37.6945 23.2535C37.1353 20.4819 36.0046 18.2808 36.0066 16.3385C36.0097 13.4285 36.6328 10.3607 37.9682 8.07773C39.2506 5.88543 41.1781 3.85616 43.0979 3.4347C45.227 2.96761 47.844 4.38075 50.2552 5.91059C52.2705 7.18929 54.1403 8.95809 55.2886 11.0663C56.6004 13.4751 57.2093 16.5638 57.3871 19.6008C57.4663 20.9609 57.1816 23.4342 56.8498 25.4556C56.518 27.4767 56.1655 29.0908 56.1655 29.0908L58.6797 29.819C58.6797 29.819 59.0517 28.1276 59.3994 26.009C59.7472 23.8904 60.0928 21.3875 59.9773 19.4028C59.7814 16.0558 59.1301 12.496 57.4885 9.4817C56.0223 6.7895 53.8108 4.75896 51.5123 3.30071C49.0501 1.73866 45.95 -0.228446 42.6114 0.504409Z" fill="#1188EE"/>
<path fill-rule="evenodd" clip-rule="evenodd" d="M57.8992 41.2605L55.3394 41.7732C55.3394 41.7732 56.7996 51.69 56.6979 56.244C56.6279 59.4272 56.7498 62.546 55.6334 64.5805C54.4007 66.8274 52.0739 68.7243 49.8498 69.1827C47.8657 69.592 45.4087 68.7232 43.5796 67.3011C41.5611 65.7313 39.9553 63.0524 39.1545 60.2928C38.4481 57.8592 38.9962 54.7756 39.1038 51.4612C39.1949 48.6163 39.7881 42.612 39.7881 42.612L37.208 42.2742C37.208 42.2742 36.6145 48.2063 36.5136 51.3563C36.418 54.2767 35.6799 57.7586 36.691 61.2424C37.6565 64.5687 39.5247 67.7569 42.1299 69.7824C44.4174 71.5613 47.4031 72.7242 50.3111 72.1247C53.3897 71.4897 56.1925 69.1674 57.8333 66.1764H57.8281C59.5618 63.0168 59.228 59.2805 59.293 56.3252C59.4124 50.9838 57.8991 41.2663 57.8991 41.2663L57.8992 41.2605Z" fill="#1188EE"/>
<path fill-rule="evenodd" clip-rule="evenodd" d="M46.2509 9.6854C45.9076 9.69912 45.583 9.86858 45.3483 10.1569C45.1136 10.4453 44.9879 10.8287 44.9989 11.2234L45.0546 14.6547C45.0615 15.0502 45.2048 15.4266 45.453 15.7007C45.7013 15.9748 46.0341 16.1241 46.3782 16.1162C46.7224 16.1083 47.0497 15.9438 47.2882 15.6585C47.5267 15.3732 47.6568 14.9905 47.6499 14.595L47.5941 11.1698C47.5936 10.97 47.5581 10.7722 47.4897 10.5884C47.4214 10.4046 47.3216 10.2387 47.1963 10.1001C47.071 9.96153 46.9227 9.85334 46.7603 9.78189C46.5979 9.71044 46.4247 9.6784 46.2509 9.6854Z" fill="#1188EE"/>
<path fill-rule="evenodd" clip-rule="evenodd" d="M6.68321 48.6765C6.53736 48.6843 6.39806 48.7485 6.28783 48.8586L1.7005 53.3381C1.56942 53.4664 1.48804 53.6492 1.47425 53.8464C1.46046 54.0436 1.5154 54.239 1.62697 54.3896C1.73855 54.5403 1.89763 54.6341 2.06921 54.65C2.2408 54.6658 2.41084 54.6027 2.54193 54.4745L7.12927 49.9942C7.23327 49.894 7.30733 49.759 7.34103 49.6079C7.37473 49.4568 7.36638 49.2974 7.31714 49.152C7.2679 49.0067 7.18026 48.8829 7.06655 48.7978C6.95283 48.7127 6.81877 48.6695 6.68321 48.6765Z" fill="#1188EE"/>
<path fill-rule="evenodd" clip-rule="evenodd" d="M7.60574 51.0476C7.43706 51.0536 7.27706 51.1347 7.15968 51.274L1.42678 57.9968C1.36542 58.0664 1.31674 58.1493 1.28358 58.2408C1.25041 58.3322 1.23342 58.4304 1.23361 58.5295C1.23379 58.6285 1.25115 58.7266 1.28465 58.8179C1.31816 58.9091 1.36715 58.9918 1.42877 59.0611C1.49038 59.1303 1.56338 59.1848 1.64351 59.2213C1.72364 59.2578 1.80928 59.2753 1.89545 59.2733C1.98162 59.2714 2.06658 59.2498 2.14538 59.2096C2.22418 59.1695 2.29523 59.1116 2.35438 59.0396L8.08729 52.3168C8.1786 52.2108 8.24015 52.0757 8.26399 51.9291C8.28783 51.7824 8.27285 51.6311 8.221 51.4943C8.16915 51.3576 8.08281 51.242 7.97313 51.1623C7.86345 51.0825 7.73547 51.0429 7.60574 51.0476Z" fill="#1188EE"/>
<path fill-rule="evenodd" clip-rule="evenodd" d="M8.4928 54.2108C8.32648 54.2276 8.17217 54.3172 8.06194 54.4614L2.09587 62.1104C1.98096 62.258 1.92175 62.4519 1.93127 62.6496C1.94078 62.8474 2.01824 63.0327 2.14662 63.1648C2.27499 63.2969 2.44375 63.3647 2.6158 63.3538C2.78784 63.3429 2.94907 63.2541 3.06403 63.1066L9.02503 55.4575C9.11304 55.3469 9.17 55.2083 9.18849 55.0599C9.20698 54.9116 9.18614 54.7601 9.12869 54.6256C9.07123 54.491 8.97983 54.3795 8.8664 54.3055C8.75297 54.2315 8.62277 54.1985 8.4928 54.2108Z" fill="#1188EE"/>
<path fill-rule="evenodd" clip-rule="evenodd" d="M9.4052 57.3741C9.23735 57.3939 9.0828 57.488 8.97434 57.6366L3.35295 65.0177C3.29388 65.0909 3.24821 65.1768 3.21865 65.2707C3.1891 65.3646 3.17627 65.4644 3.18091 65.5642C3.18556 65.6639 3.2076 65.7617 3.24571 65.8515C3.28382 65.9412 3.33723 66.0214 3.40278 66.087C3.46832 66.1526 3.54467 66.2024 3.62727 66.2334C3.70988 66.2644 3.79707 66.2761 3.88367 66.2676C3.97027 66.2592 4.05451 66.2308 4.13139 66.1842C4.20828 66.1377 4.27624 66.0737 4.33125 65.9964L9.94757 58.6149C10.0347 58.5034 10.0906 58.3645 10.1079 58.2159C10.1252 58.0673 10.1031 57.9162 10.0446 57.7822C9.986 57.6483 9.89367 57.5375 9.77962 57.4647C9.66557 57.392 9.53509 57.3603 9.4052 57.3741Z" fill="#1188EE"/>
<path fill-rule="evenodd" clip-rule="evenodd" d="M10.4545 59.483C10.3598 59.4899 10.2677 59.5206 10.1845 59.5729C10.1013 59.6252 10.0291 59.6981 9.97291 59.7859L5.15747 67.167C5.10622 67.2454 5.0689 67.3345 5.04765 67.4295C5.02641 67.5245 5.02165 67.6233 5.03365 67.7204C5.04565 67.8175 5.07417 67.9109 5.11759 67.9953C5.16101 68.0797 5.21848 68.1538 5.28671 68.2127C5.35494 68.2716 5.43259 68.3142 5.51524 68.3387C5.5979 68.3631 5.68392 68.3688 5.76842 68.355C5.85291 68.3412 5.93421 68.3085 6.00767 68.2586C6.08114 68.2086 6.14534 68.1425 6.1966 68.0641L11.012 60.6831C11.0885 60.5693 11.1347 60.4327 11.1451 60.2895C11.1556 60.1462 11.1298 60.0026 11.0709 59.8758C11.012 59.7491 10.9225 59.6444 10.8131 59.5747C10.7038 59.5051 10.5792 59.4732 10.4545 59.483Z" fill="#1188EE"/>
<path fill-rule="evenodd" clip-rule="evenodd" d="M11.7115 62.5124C11.6174 62.5209 11.5259 62.553 11.4436 62.6063C11.3613 62.6597 11.2901 62.7329 11.2351 62.8212L7.33202 68.8856C7.28053 68.9644 7.24311 69.0542 7.22193 69.1496C7.20075 69.2451 7.19623 69.3442 7.20863 69.4416C7.22103 69.5391 7.25011 69.6328 7.29418 69.7173C7.33825 69.8017 7.39645 69.8754 7.4654 69.9339C7.53436 69.9924 7.61271 70.0346 7.69594 70.0581C7.77916 70.0815 7.86562 70.0859 7.9503 70.0708C8.03498 70.0557 8.11622 70.0213 8.18932 69.9699C8.26243 69.9185 8.32594 69.8509 8.37621 69.7711L12.2742 63.7067C12.3495 63.5925 12.3945 63.4559 12.404 63.3131C12.4135 63.1702 12.3869 63.0272 12.3276 62.9013C12.2682 62.7753 12.1786 62.6717 12.0693 62.6027C11.9601 62.5337 11.8359 62.5024 11.7115 62.5124Z" fill="#1188EE"/>
<path fill-rule="evenodd" clip-rule="evenodd" d="M12.8622 65.4134C12.7456 65.422 12.6332 65.4664 12.5368 65.5423C12.4405 65.6182 12.3638 65.7226 12.3147 65.8445L10.8245 69.404C10.7499 69.5824 10.7401 69.7873 10.7971 69.9741C10.8541 70.1609 10.9734 70.314 11.1287 70.3998C11.2839 70.4855 11.4624 70.497 11.625 70.4314C11.7875 70.3659 11.9208 70.229 11.9954 70.0506L13.4856 66.4911C13.5368 66.3737 13.5601 66.2429 13.5531 66.1117C13.5461 65.9806 13.5091 65.8538 13.4458 65.7444C13.3825 65.635 13.2952 65.5469 13.1927 65.4888C13.0903 65.4306 12.9762 65.4046 12.8622 65.4134Z" fill="#1188EE"/>
<path fill-rule="evenodd" clip-rule="evenodd" d="M8.47252 8.00766C8.30384 8.01368 8.14384 8.09478 8.02646 8.23413L1.45719 15.6909C1.39491 15.7593 1.3451 15.8412 1.31067 15.932C1.27624 16.0227 1.25788 16.1206 1.25666 16.2196C1.25544 16.3186 1.27139 16.4169 1.30357 16.5087C1.33575 16.6006 1.38352 16.6841 1.4441 16.7545C1.50468 16.8249 1.57684 16.8807 1.65639 16.9187C1.73594 16.9567 1.82128 16.9761 1.90743 16.9759C1.99358 16.9756 2.07881 16.9558 2.15816 16.9172C2.23751 16.8787 2.30938 16.822 2.36959 16.7512L8.93379 9.29439C9.02919 9.19081 9.09502 9.05665 9.12259 8.90917C9.15016 8.7617 9.13817 8.60809 9.08821 8.46861C9.03824 8.32913 8.95265 8.21023 8.84273 8.12781C8.73281 8.0454 8.60373 8.00402 8.47252 8.00766Z" fill="#1188EE"/>
<path fill-rule="evenodd" clip-rule="evenodd" d="M8.4269 11.7362C8.33283 11.7327 8.23922 11.7526 8.15256 11.7949C8.06591 11.8371 7.98829 11.9004 7.92508 11.9805L1.11251 20.3695C1.05425 20.441 1.00882 20.525 0.978821 20.6167C0.948819 20.7084 0.934828 20.806 0.937648 20.904C0.940467 21.0019 0.960041 21.0984 0.995253 21.1876C1.03046 21.2768 1.08062 21.3573 1.14287 21.4243C1.20511 21.4912 1.27822 21.5431 1.35802 21.5775C1.43781 21.612 1.52274 21.6281 1.60794 21.6249C1.69314 21.6216 1.77695 21.5991 1.85458 21.5586C1.93221 21.5181 2.00214 21.4605 2.06039 21.3889L8.87296 13C8.9604 12.8962 9.01972 12.7658 9.0437 12.6239C9.06768 12.4821 9.05529 12.3351 9.00805 12.2012C8.9608 12.0673 8.88072 11.9521 8.77755 11.8695C8.67438 11.7869 8.55256 11.7407 8.4269 11.7362Z" fill="#1188EE"/>
<path fill-rule="evenodd" clip-rule="evenodd" d="M8.40663 15.9307C8.23766 15.932 8.07581 16.0091 7.9555 16.1455L2.03504 22.5766C1.96605 22.6413 1.90938 22.7219 1.86857 22.8129C1.82776 22.9039 1.80368 23.0035 1.79783 23.1057C1.79199 23.2078 1.8045 23.3101 1.83458 23.4064C1.86467 23.5027 1.91169 23.5911 1.97271 23.6656C2.03374 23.7402 2.10746 23.7993 2.1893 23.8397C2.27113 23.8801 2.35932 23.9006 2.44838 23.9001C2.53744 23.8996 2.62546 23.8784 2.70696 23.8371C2.78845 23.7959 2.86169 23.7358 2.9221 23.6605L8.84255 17.2287C8.93987 17.1276 9.00824 16.9949 9.03864 16.8482C9.06904 16.7015 9.06004 16.5479 9.01283 16.4073C8.96562 16.2666 8.88242 16.1455 8.7742 16.0603C8.66597 15.9751 8.53782 15.9305 8.40663 15.9307Z" fill="#1188EE"/>
<path fill-rule="evenodd" clip-rule="evenodd" d="M42.2059 48.6765C42.0601 48.6843 41.9208 48.7485 41.8106 48.8586L37.2232 53.3381C37.0921 53.4664 37.0107 53.6492 36.9969 53.8464C36.9831 54.0436 37.0381 54.239 37.1497 54.3896C37.2612 54.5403 37.4203 54.6341 37.5919 54.65C37.7635 54.6658 37.9336 54.6027 38.0646 54.4745L42.652 49.9942C42.756 49.894 42.83 49.759 42.8638 49.6079C42.8974 49.4568 42.8891 49.2974 42.8399 49.152C42.7906 49.0067 42.703 48.8829 42.5893 48.7978C42.4755 48.7127 42.3415 48.6695 42.2059 48.6765Z" fill="#1188EE"/>
<path fill-rule="evenodd" clip-rule="evenodd" d="M43.1285 51.0476C42.9598 51.0536 42.7998 51.1347 42.6824 51.274L36.9495 57.9968C36.8881 58.0664 36.8395 58.1493 36.8063 58.2408C36.7731 58.3322 36.7561 58.4304 36.7563 58.5295C36.7565 58.6285 36.7739 58.7266 36.8074 58.8179C36.8409 58.9091 36.8899 58.9918 36.9515 59.0611C37.0131 59.1303 37.0861 59.1848 37.1662 59.2213C37.2464 59.2578 37.332 59.2753 37.4182 59.2733C37.5043 59.2714 37.5893 59.2498 37.6681 59.2096C37.7469 59.1695 37.8179 59.1116 37.8771 59.0396L43.61 52.3168C43.7013 52.2108 43.7629 52.0757 43.7867 51.9291C43.8105 51.7824 43.7956 51.6311 43.7437 51.4943C43.6919 51.3576 43.6055 51.242 43.4958 51.1623C43.3862 51.0825 43.2582 51.0429 43.1285 51.0476Z" fill="#1188EE"/>
<path fill-rule="evenodd" clip-rule="evenodd" d="M44.0155 54.2108C43.8492 54.2276 43.6949 54.3172 43.5847 54.4614L37.6186 62.1104C37.5617 62.1835 37.5178 62.2687 37.4896 62.3613C37.4613 62.4538 37.4492 62.5517 37.4539 62.6496C37.4634 62.8474 37.5409 63.0327 37.6693 63.1648C37.7976 63.297 37.9664 63.3651 38.1385 63.3542C38.3106 63.3433 38.4718 63.2541 38.5867 63.1066L44.5477 55.4575C44.6358 55.3469 44.6927 55.2083 44.7112 55.0599C44.7297 54.9116 44.7089 54.7601 44.6514 54.6256C44.594 54.491 44.5025 54.3795 44.3891 54.3055C44.2757 54.2315 44.1455 54.1985 44.0155 54.2108Z" fill="#1188EE"/>
<path fill-rule="evenodd" clip-rule="evenodd" d="M44.9279 57.3741C44.7601 57.3939 44.6055 57.488 44.4971 57.6366L38.8757 65.0177C38.8166 65.0909 38.7709 65.1768 38.7414 65.2707C38.7118 65.3646 38.699 65.4644 38.7036 65.5642C38.7083 65.6639 38.7303 65.7617 38.7684 65.8515C38.8065 65.9412 38.8599 66.0214 38.9255 66.087C38.991 66.1526 39.0674 66.2024 39.15 66.2334C39.2326 66.2644 39.3198 66.2761 39.4064 66.2676C39.493 66.2592 39.5772 66.2308 39.6541 66.1842C39.731 66.1377 39.799 66.0737 39.854 65.9964L45.4703 58.6149C45.5574 58.5034 45.6133 58.3645 45.6306 58.2159C45.6479 58.0673 45.6258 57.9162 45.5673 57.7822C45.5087 57.6483 45.4164 57.5375 45.3023 57.4647C45.1883 57.392 45.0578 57.3603 44.9279 57.3741Z" fill="#1188EE"/>
<path fill-rule="evenodd" clip-rule="evenodd" d="M45.9772 59.483C45.8825 59.4899 45.7904 59.5206 45.7072 59.5729C45.624 59.6252 45.5518 59.6981 45.4956 59.7859L40.6802 67.167C40.6289 67.2454 40.5916 67.3345 40.5704 67.4295C40.5491 67.5245 40.5444 67.6233 40.5564 67.7204C40.5684 67.8175 40.5969 67.9109 40.6403 67.9953C40.6837 68.0797 40.7412 68.1538 40.8094 68.2127C40.8777 68.2716 40.9553 68.3142 41.038 68.3387C41.1206 68.3631 41.2066 68.3688 41.2911 68.355C41.3756 68.3412 41.4569 68.3085 41.5304 68.2586C41.6039 68.2086 41.6681 68.1425 41.7193 68.0641L46.5347 60.6831C46.6112 60.5693 46.6574 60.4327 46.6679 60.2895C46.6783 60.1462 46.6525 60.0026 46.5936 59.8758C46.5347 59.7491 46.4452 59.6444 46.3358 59.5747C46.2265 59.5051 46.1019 59.4732 45.9772 59.483Z" fill="#1188EE"/>
<path fill-rule="evenodd" clip-rule="evenodd" d="M47.2343 62.5124C47.1401 62.5209 47.0486 62.553 46.9663 62.6063C46.884 62.6597 46.8129 62.7329 46.7578 62.8212L42.8547 68.8856C42.8032 68.9644 42.7658 69.0542 42.7447 69.1496C42.7235 69.2451 42.719 69.3442 42.7314 69.4416C42.7438 69.5391 42.7728 69.6328 42.8169 69.7173C42.861 69.8017 42.9192 69.8754 42.9881 69.9339C43.0571 69.9924 43.1354 70.0346 43.2187 70.0581C43.3019 70.0815 43.3883 70.0859 43.473 70.0708C43.5577 70.0557 43.6389 70.0213 43.712 69.9699C43.7851 69.9185 43.8487 69.8509 43.8989 69.7711L47.7969 63.7067C47.8722 63.5925 47.9172 63.4559 47.9267 63.3131C47.9362 63.1702 47.9097 63.0272 47.8503 62.9013C47.791 62.7753 47.7013 62.6717 47.5921 62.6027C47.4828 62.5337 47.3586 62.5024 47.2343 62.5124Z" fill="#1188EE"/>
<path fill-rule="evenodd" clip-rule="evenodd" d="M48.3849 65.4134C48.2683 65.422 48.1559 65.4664 48.0596 65.5423C47.9632 65.6182 47.8865 65.7226 47.8375 65.8445L46.3472 69.404C46.3103 69.4923 46.2888 69.5882 46.2841 69.6861C46.2794 69.784 46.2915 69.882 46.3197 69.9745C46.3768 70.1613 46.4961 70.3144 46.6513 70.4001C46.8066 70.4859 46.9852 70.497 47.1477 70.4314C47.3103 70.3659 47.4435 70.2291 47.5181 70.0506L49.0084 66.4911C49.0595 66.3737 49.0828 66.2429 49.0758 66.1117C49.0688 65.9806 49.0318 65.8538 48.9685 65.7444C48.9052 65.635 48.8179 65.5469 48.7155 65.4888C48.613 65.4306 48.4989 65.4046 48.3849 65.4134Z" fill="#1188EE"/>
</svg>
